<?xml version="1.0" encoding="UTF-8" standalone="no"?>
<!-- Created with Inkscape (http://www.inkscape.org/) -->

<svg
   version="1.1"
   id="svg2"
   width="230"
   height="345"
   viewBox="0 0 230 345"
   sodipodi:docname="embeds.svg"
   xml:space="preserve"
   inkscape:version="1.2.2 (b0a8486541, 2022-12-01)"
   inkscape:export-filename="spinner.png"
   inkscape:export-xdpi="96"
   inkscape:export-ydpi="96"
   xmlns:inkscape="http://www.inkscape.org/namespaces/inkscape"
   xmlns:sodipodi="http://sodipodi.sourceforge.net/DTD/sodipodi-0.dtd"
   xmlns="http://www.w3.org/2000/svg"
   xmlns:svg="http://www.w3.org/2000/svg"><defs
     id="defs6" /><sodipodi:namedview
     id="namedview4"
     pagecolor="#2b2d42"
     bordercolor="#ffffff"
     borderopacity="1"
     inkscape:showpageshadow="0"
     inkscape:pageopacity="0"
     inkscape:pagecheckerboard="1"
     inkscape:deskcolor="#505050"
     showgrid="false"
     inkscape:zoom="1.0722941"
     inkscape:cx="72.741238"
     inkscape:cy="137.08926"
     inkscape:current-layer="g8"
     showborder="false" /><g
     inkscape:groupmode="layer"
     inkscape:label="Layer 1"
     id="g8"><path
       style="fill:#feb500;fill-opacity:1;stroke:none;stroke-width:0.613369"
       d="m 75.141395,231.59396 c 0.241239,-1.82873 1.935667,-11.94366 3.765386,-22.47766 l 3.326746,-19.15274 -13.333025,-13.08227 c -7.333161,-7.19526 -14.710785,-14.35777 -16.394735,-15.91665 -1.683945,-1.55889 -2.926017,-2.94488 -2.760172,-3.08 0.165992,-0.13521 10.230201,-1.67973 22.365211,-3.43254 12.135008,-1.75281 22.256578,-3.38807 22.492399,-3.63391 0.23582,-0.24583 4.945797,-9.51226 10.466635,-20.59205 l 10.03785,-20.14503 9.96242,20.27263 c 5.47931,11.14996 10.20608,20.42326 10.50391,20.60734 0.29782,0.18406 10.4338,1.76341 22.52438,3.50965 12.09057,1.74626 22.0669,3.23235 22.16956,3.3024 0.1915,0.13077 -20.79439,20.84139 -28.29239,27.92127 l -4.18434,3.95102 3.76579,21.94755 c 2.07118,12.07116 3.67811,22.17972 3.57096,22.46347 -0.10716,0.28376 -9.02731,-4.13971 -19.8226,-9.82986 -10.79528,-5.69021 -19.87841,-10.35163 -20.18469,-10.35876 -0.53229,-0.0123 -28.286882,14.34856 -36.491472,18.88167 l -3.92648,2.1694 z m 34.735875,-21.3601 5.24032,-2.71407 16.49292,8.6781 c 9.07111,4.77293 16.55299,8.61345 16.62636,8.5345 0.0734,-0.079 -1.28806,-8.50307 -3.02549,-18.72023 -2.35413,-13.84379 -2.97377,-18.69112 -2.43219,-19.02593 1.01397,-0.62682 26.05634,-25.38397 25.83128,-25.5371 -0.10088,-0.0685 -5.42748,-0.87356 -11.83719,-1.78894 -6.4097,-0.91538 -14.64088,-2.1101 -18.29147,-2.65497 l -6.63747,-0.99062 -8.39569,-16.78277 -8.39565,-16.78278 -8.27488,16.61775 c -4.55115,9.13977 -8.412867,16.70684 -8.581539,16.81571 -0.168763,0.109 -8.449139,1.37262 -18.401054,2.80835 -9.951894,1.43576 -18.19397,2.68892 -18.315696,2.78483 -0.121713,0.096 5.792568,6.07269 13.142858,13.28177 l 13.364207,13.10738 -2.926757,17.13526 c -1.609741,9.42437 -3.078881,17.79687 -3.264758,18.60549 -0.304572,1.32486 0.808256,0.87054 11.251778,-4.59371 6.374381,-3.33519 13.947951,-7.28532 16.830111,-8.77802 z m -18.244607,-9.95011 2.44794,-14.24337 -10.462155,-10.32081 c -5.754206,-5.67646 -10.309971,-10.32082 -10.123955,-10.32082 0.619435,0 26.214656,-3.71338 27.512657,-3.99158 0.97098,-0.20818 2.78185,-3.38015 7.55344,-13.23115 3.45196,-7.12659 6.36993,-12.8603 6.48441,-12.74154 0.11452,0.11866 3.02547,5.87422 6.46886,12.78996 3.44344,6.91571 6.36485,12.68579 6.49204,12.82239 0.17989,0.19311 27.17628,4.3155 28.45394,4.34499 0.16482,0.005 -4.36484,4.67772 -10.06618,10.3865 l -10.3661,10.37956 2.24574,13.15686 c 1.23515,7.23625 2.24571,13.62755 2.24571,14.20284 0,0.83491 -1.29953,0.35566 -6.44035,-2.37521 -3.54221,-1.88164 -9.27008,-4.92398 -12.72859,-6.76075 l -6.28824,-3.33961 -12.23936,6.47424 c -6.731641,3.56081 -12.554001,6.59496 -12.938553,6.74254 -0.448974,0.17224 0.176879,-4.82895 1.748746,-13.97504 z"
       id="path300"
       inkscape:label="star" /><circle
       style="fill:none;fill-rule:evenodd;stroke:#feb500;stroke-width:4.8;stroke-dasharray:124.8, 124.8;stroke-dashoffset:0;paint-order:markers fill stroke"
       id="path346"
       cx="203.04022"
       cy="40.322632"
       r="79.760056"
       transform="rotate(45)"
       sodipodi:insensitive="true"
       inkscape:label="spinner" /><g
       id="g1800"
       inkscape:label="colors"
       transform="matrix(3.7795275,0,0,3.7795275,123.15188,-70.616143)"><rect
         style="opacity:1;fill:#2b2d42;fill-opacity:1;stroke:none;stroke-width:0.0613833;stroke-linecap:round;stroke-linejoin:round"
         id="rect1653"
         width="57.955578"
         height="39.289127"
         x="-118.41911"
         y="-57.586948" /><rect
         style="opacity:1;fill:#6b3ebd;fill-opacity:1;stroke:none;stroke-width:0.0613833;stroke-linecap:round;stroke-linejoin:round"
         id="rect1793"
         width="57.955578"
         height="39.289127"
         x="-118.41911"
         y="4.6260295" /><rect
         style="opacity:1;fill:#feb500;fill-opacity:1;stroke:none;stroke-width:0.0613833;stroke-linecap:round;stroke-linejoin:round"
         id="rect1795"
         width="57.955578"
         height="39.289127"
         x="-118.41911"
         y="66.4207" /><rect
         style="opacity:1;fill:#fed33c;fill-opacity:1;stroke:none;stroke-width:0.0613833;stroke-linecap:round;stroke-linejoin:round"
         id="rect2229"
         width="57.955578"
         height="39.289127"
         x="-118.41911"
         y="122.19254" /></g></g></svg>
