<?xml version="1.0" encoding="UTF-8" standalone="no"?>
<!-- Created with Inkscape (http://www.inkscape.org/) -->

<svg
   version="1.1"
   id="svg2"
   width="230"
   height="325"
   viewBox="0 0 230 325"
   sodipodi:docname="embeds.svg"
   xml:space="preserve"
   inkscape:version="1.2.2 (b0a8486541, 2022-12-01)"
   inkscape:export-filename="emotes/star.png"
   inkscape:export-xdpi="96"
   inkscape:export-ydpi="96"
   xmlns:inkscape="http://www.inkscape.org/namespaces/inkscape"
   xmlns:sodipodi="http://sodipodi.sourceforge.net/DTD/sodipodi-0.dtd"
   xmlns="http://www.w3.org/2000/svg"
   xmlns:svg="http://www.w3.org/2000/svg"><defs
     id="defs6" /><sodipodi:namedview
     id="namedview4"
     pagecolor="#2b2d42"
     bordercolor="#ffffff"
     borderopacity="1"
     inkscape:showpageshadow="0"
     inkscape:pageopacity="0"
     inkscape:pagecheckerboard="1"
     inkscape:deskcolor="#505050"
     showgrid="false"
     inkscape:zoom="0.42100799"
     inkscape:cx="507.11627"
     inkscape:cy="-54.630793"
     inkscape:current-layer="g8"
     showborder="false" /><g
     inkscape:groupmode="layer"
     inkscape:label="Layer 1"
     id="g8"><g
       id="g1800"
       inkscape:label="colors"
       transform="matrix(3.7795275,0,0,3.7795275,123.15188,-70.616143)"><rect
         style="opacity:1;fill:#2b2d42;fill-opacity:1;stroke:none;stroke-width:0.0613833;stroke-linecap:round;stroke-linejoin:round"
         id="rect1653"
         width="57.955578"
         height="39.289127"
         x="-118.41911"
         y="-57.586948" /><rect
         style="opacity:1;fill:#6b3ebd;fill-opacity:1;stroke:none;stroke-width:0.0613833;stroke-linecap:round;stroke-linejoin:round"
         id="rect1793"
         width="57.955578"
         height="39.289127"
         x="-118.41911"
         y="4.6260295" /><rect
         style="opacity:1;fill:#feb500;fill-opacity:1;stroke:none;stroke-width:0.0613833;stroke-linecap:round;stroke-linejoin:round"
         id="rect1795"
         width="57.955578"
         height="39.289127"
         x="-118.41911"
         y="66.4207" /><rect
         style="opacity:1;fill:#fed33c;fill-opacity:1;stroke:none;stroke-width:0.0613833;stroke-linecap:round;stroke-linejoin:round"
         id="rect2229"
         width="57.955578"
         height="39.289127"
         x="-118.41911"
         y="122.19254" /><rect
         style="opacity:1;fill:#00a86b;fill-opacity:1;stroke:none;stroke-width:0.0613833;stroke-linecap:round;stroke-linejoin:round"
         id="rect478"
         width="57.955578"
         height="39.289127"
         x="-37.266357"
         y="-57.586948" /><rect
         style="opacity:1;fill:#a51727;fill-opacity:1;stroke:none;stroke-width:0.0613833;stroke-linecap:round;stroke-linejoin:round"
         id="rect480"
         width="57.955578"
         height="39.289127"
         x="45.599529"
         y="-57.586948" /></g><g
       id="g374"
       transform="matrix(0.6654058,0,0,0.6654058,18.573585,34.537364)"
       style="display:none"
       inkscape:label="rating"><path
         style="fill:#feb500;fill-opacity:1;stroke:none;stroke-width:0.234127"
         d="m 9.6994124,233.64974 c 0.09208,-0.69804 0.7388556,-4.55897 1.4372716,-8.57987 l 1.26984,-7.31072 -5.0893016,-4.99359 c -2.799115,-2.74648 -5.615202,-5.48045 -6.257976,-6.07549 -0.64277304,-0.59504 -1.11688004,-1.12408 -1.05357604,-1.17565 0.06336,-0.0516 3.90493404,-0.64117 8.53694604,-1.31023 4.6320106,-0.66905 8.4954796,-1.29324 8.5854946,-1.38708 0.09001,-0.0938 1.887843,-3.63089 3.995182,-7.86012 l 3.831513,-7.68949 3.80272,7.73819 c 2.091488,4.25602 3.895727,7.79569 4.009411,7.86596 0.11368,0.0703 3.982649,0.6731 8.597702,1.33966 4.615049,0.66655 8.423079,1.2338 8.462265,1.26054 0.0731,0.0499 -7.937354,7.9553 -10.799389,10.65773 l -1.59719,1.50813 1.437426,8.37753 c 0.790583,4.60764 1.403959,8.46614 1.363059,8.57445 -0.0409,0.10831 -3.445783,-1.58016 -7.566415,-3.75212 -4.120628,-2.17199 -7.587718,-3.95129 -7.704627,-3.95401 -0.203179,-0.005 -10.797286,5.47694 -13.929032,7.20726 l -1.4987626,0.82807 z m 13.2589086,-8.15329 2.000264,-1.03597 6.295454,3.31248 c 3.462502,1.82186 6.318384,3.28781 6.34639,3.25768 0.02802,-0.0302 -0.491661,-3.24568 -1.154849,-7.14564 -0.898587,-5.28426 -1.135108,-7.13452 -0.928383,-7.26232 0.387039,-0.23926 9.945874,-9.68922 9.859967,-9.74767 -0.03851,-0.0262 -2.071704,-0.33345 -4.518332,-0.68285 -2.446624,-0.34941 -5.588519,-0.80544 -6.981973,-1.01342 l -2.533565,-0.37813 -3.20469,-6.40609 -3.204674,-6.4061 -3.158575,6.34311 c -1.737204,3.4887 -3.211246,6.3771 -3.275629,6.41866 -0.06442,0.0416 -3.225091,0.52394 -7.023802,1.07197 -3.7987016,0.54804 -6.9447556,1.02637 -6.9912196,1.06298 -0.04646,0.0366 2.211061,2.31799 5.016714,5.06974 l 5.1012046,5.00317 -1.117162,6.54064 c -0.614449,3.59735 -1.175229,6.79318 -1.24618,7.10184 -0.116257,0.50571 0.308517,0.33229 4.294877,-1.75345 2.433143,-1.27306 5.324023,-2.78085 6.424163,-3.35063 z m -6.964085,-3.79802 0.934394,-5.43678 -3.993472,-3.93952 c -2.196418,-2.16675 -3.9353826,-3.93953 -3.8643796,-3.93953 0.236443,0 10.0063046,-1.41742 10.5017596,-1.52361 0.37063,-0.0795 1.06185,-1.29023 2.883197,-5.05042 1.317636,-2.72026 2.431444,-4.90886 2.475142,-4.86352 0.04371,0.0453 1.154841,2.24222 2.469205,4.88201 1.314384,2.63977 2.429505,4.84224 2.478054,4.89439 0.06867,0.0737 10.373363,1.64725 10.861054,1.65851 0.06291,0.002 -1.666088,1.78551 -3.842327,3.96459 l -3.956807,3.96195 0.857213,5.02205 c 0.471465,2.76213 0.857202,5.20173 0.857202,5.42132 0,0.31869 -0.496039,0.13576 -2.458323,-0.90663 -1.352084,-0.71824 -3.53845,-1.87952 -4.858585,-2.58062 l -2.400262,-1.27475 -4.671843,2.47125 c -2.569511,1.35919 -4.791944,2.51734 -4.93873,2.57368 -0.171376,0.0657 0.06752,-1.84325 0.667508,-5.33437 z"
         id="path300"
         inkscape:label="star"
         inkscape:export-filename="./path300.png"
         inkscape:export-xdpi="96"
         inkscape:export-ydpi="96" /><path
         style="fill:#feb500;fill-opacity:1;stroke:none;stroke-width:0.234127"
         d="m 69.699412,233.64974 c 0.09208,-0.69804 0.738856,-4.55897 1.437272,-8.57987 l 1.26984,-7.31072 -5.089302,-4.99359 c -2.799115,-2.74648 -5.615202,-5.48045 -6.257976,-6.07549 -0.642773,-0.59504 -1.11688,-1.12408 -1.053576,-1.17565 0.06336,-0.0516 3.904934,-0.64117 8.536946,-1.31023 4.632011,-0.66905 8.49548,-1.29324 8.585495,-1.38708 0.09001,-0.0938 1.887843,-3.63089 3.995182,-7.86012 l 3.831513,-7.68949 3.80272,7.73819 c 2.091488,4.25602 3.895727,7.79569 4.009411,7.86596 0.11368,0.0703 3.982649,0.6731 8.597703,1.33966 4.61505,0.66655 8.42308,1.2338 8.46226,1.26054 0.0731,0.0499 -7.93735,7.9553 -10.799385,10.65773 l -1.59719,1.50813 1.437426,8.37753 c 0.790583,4.60764 1.403959,8.46614 1.363059,8.57445 -0.0409,0.10831 -3.445783,-1.58016 -7.566415,-3.75212 -4.120628,-2.17199 -7.587718,-3.95129 -7.704627,-3.95401 -0.203179,-0.005 -10.797286,5.47694 -13.929032,7.20726 l -1.498763,0.82807 z m 13.258909,-8.15329 2.000264,-1.03597 6.295454,3.31248 c 3.462502,1.82186 6.318384,3.28781 6.34639,3.25768 0.02802,-0.0302 -0.491661,-3.24568 -1.154849,-7.14564 -0.898587,-5.28426 -1.135108,-7.13452 -0.928383,-7.26232 0.387039,-0.23926 9.945873,-9.68922 9.859963,-9.74767 -0.0385,-0.0262 -2.0717,-0.33345 -4.51833,-0.68285 -2.446622,-0.34941 -5.588517,-0.80544 -6.981971,-1.01342 l -2.533565,-0.37813 -3.20469,-6.40609 -3.204674,-6.4061 -3.158575,6.34311 c -1.737204,3.4887 -3.211246,6.3771 -3.275629,6.41866 -0.06442,0.0416 -3.225091,0.52394 -7.023802,1.07197 -3.798702,0.54804 -6.944756,1.02637 -6.99122,1.06298 -0.04646,0.0366 2.211061,2.31799 5.016714,5.06974 l 5.101205,5.00317 -1.117162,6.54064 c -0.614449,3.59735 -1.175229,6.79318 -1.24618,7.10184 -0.116257,0.50571 0.308517,0.33229 4.294877,-1.75345 2.433143,-1.27306 5.324023,-2.78085 6.424163,-3.35063 z m -6.964085,-3.79802 0.934394,-5.43678 -3.993472,-3.93952 c -2.196418,-2.16675 -3.935383,-3.93953 -3.86438,-3.93953 0.236443,0 10.006305,-1.41742 10.50176,-1.52361 0.37063,-0.0795 1.06185,-1.29023 2.883197,-5.05042 1.317636,-2.72026 2.431444,-4.90886 2.475142,-4.86352 0.04371,0.0453 1.154841,2.24222 2.469205,4.88201 1.314384,2.63977 2.429505,4.84224 2.478054,4.89439 0.06867,0.0737 10.373364,1.64725 10.861054,1.65851 0.0629,0.002 -1.666088,1.78551 -3.842327,3.96459 l -3.956807,3.96195 0.857213,5.02205 c 0.471465,2.76213 0.857202,5.20173 0.857202,5.42132 0,0.31869 -0.496039,0.13576 -2.458323,-0.90663 -1.352084,-0.71824 -3.53845,-1.87952 -4.858585,-2.58062 l -2.400262,-1.27475 -4.671843,2.47125 c -2.569511,1.35919 -4.791944,2.51734 -4.93873,2.57368 -0.171376,0.0657 0.06752,-1.84325 0.667508,-5.33437 z"
         id="path361"
         inkscape:label="star" /><path
         style="fill:#feb500;fill-opacity:1;stroke:none;stroke-width:0.234127"
         d="m 129.69941,233.64974 c 0.0921,-0.69804 0.73886,-4.55897 1.43727,-8.57987 l 1.26984,-7.31072 -5.0893,-4.99359 c -2.79911,-2.74648 -5.6152,-5.48045 -6.25797,-6.07549 -0.64278,-0.59504 -1.11688,-1.12408 -1.05358,-1.17565 0.0634,-0.0516 3.90493,-0.64117 8.53695,-1.31023 4.63201,-0.66905 8.49548,-1.29324 8.58549,-1.38708 0.09,-0.0938 1.88784,-3.63089 3.99518,-7.86012 l 3.83152,-7.68949 3.80272,7.73819 c 2.09148,4.25602 3.89572,7.79569 4.00941,7.86596 0.11368,0.0703 3.98265,0.6731 8.5977,1.33966 4.61505,0.66655 8.42308,1.2338 8.46226,1.26054 0.0731,0.0499 -7.93735,7.9553 -10.79938,10.65773 l -1.59719,1.50813 1.43742,8.37753 c 0.79058,4.60764 1.40396,8.46614 1.36306,8.57445 -0.0409,0.10831 -3.44578,-1.58016 -7.56641,-3.75212 -4.12063,-2.17199 -7.58772,-3.95129 -7.70463,-3.95401 -0.20318,-0.005 -10.79729,5.47694 -13.92903,7.20726 l -1.49877,0.82807 z m 13.25891,-8.15329 2.00027,-1.03597 6.29545,3.31248 c 3.4625,1.82186 6.31838,3.28781 6.34639,3.25768 0.028,-0.0302 -0.49166,-3.24568 -1.15485,-7.14564 -0.89859,-5.28426 -1.13511,-7.13452 -0.92838,-7.26232 0.38704,-0.23926 9.94587,-9.68922 9.85996,-9.74767 -0.0385,-0.0262 -2.0717,-0.33345 -4.51833,-0.68285 -2.44662,-0.34941 -5.58852,-0.80544 -6.98197,-1.01342 l -2.53357,-0.37813 -3.20469,-6.40609 -3.20467,-6.4061 -3.15857,6.34311 c -1.73721,3.4887 -3.21125,6.3771 -3.27563,6.41866 -0.0644,0.0416 -3.22509,0.52394 -7.02381,1.07197 -3.7987,0.54804 -6.94475,1.02637 -6.99122,1.06298 -0.0465,0.0366 2.21107,2.31799 5.01672,5.06974 l 5.1012,5.00317 -1.11716,6.54064 c -0.61445,3.59735 -1.17523,6.79318 -1.24618,7.10184 -0.11626,0.50571 0.30852,0.33229 4.29488,-1.75345 2.43314,-1.27306 5.32402,-2.78085 6.42416,-3.35063 z m -6.96408,-3.79802 0.93439,-5.43678 -3.99347,-3.93952 c -2.19642,-2.16675 -3.93538,-3.93953 -3.86438,-3.93953 0.23644,0 10.0063,-1.41742 10.50176,-1.52361 0.37063,-0.0795 1.06185,-1.29023 2.8832,-5.05042 1.31763,-2.72026 2.43144,-4.90886 2.47514,-4.86352 0.0437,0.0453 1.15484,2.24222 2.4692,4.88201 1.31439,2.63977 2.42951,4.84224 2.47806,4.89439 0.0687,0.0737 10.37336,1.64725 10.86105,1.65851 0.0629,0.002 -1.66609,1.78551 -3.84233,3.96459 l -3.9568,3.96195 0.85721,5.02205 c 0.47146,2.76213 0.8572,5.20173 0.8572,5.42132 0,0.31869 -0.49604,0.13576 -2.45832,-0.90663 -1.35209,-0.71824 -3.53845,-1.87952 -4.85859,-2.58062 l -2.40026,-1.27475 -4.67184,2.47125 c -2.56951,1.35919 -4.79195,2.51734 -4.93873,2.57368 -0.17138,0.0657 0.0675,-1.84325 0.66751,-5.33437 z"
         id="path363"
         inkscape:label="star" /><path
         style="fill:#feb500;fill-opacity:1;stroke:none;stroke-width:0.234127"
         d="m 189.69941,233.64974 c 0.0921,-0.69804 0.73886,-4.55897 1.43727,-8.57987 l 1.26984,-7.31072 -5.0893,-4.99359 c -2.79911,-2.74648 -5.6152,-5.48045 -6.25797,-6.07549 -0.64278,-0.59504 -1.11688,-1.12408 -1.05358,-1.17565 0.0634,-0.0516 3.90493,-0.64117 8.53695,-1.31023 4.63201,-0.66905 8.49548,-1.29324 8.58549,-1.38708 0.09,-0.0938 1.88784,-3.63089 3.99518,-7.86012 l 3.83152,-7.68949 3.80272,7.73819 c 2.09148,4.25602 3.89572,7.79569 4.00941,7.86596 0.11368,0.0703 3.98265,0.6731 8.5977,1.33966 4.61505,0.66655 8.42308,1.2338 8.46226,1.26054 0.0731,0.0499 -7.93735,7.9553 -10.79938,10.65773 l -1.59719,1.50813 1.43742,8.37753 c 0.79058,4.60764 1.40396,8.46614 1.36306,8.57445 -0.0409,0.10831 -3.44578,-1.58016 -7.56641,-3.75212 -4.12063,-2.17199 -7.58772,-3.95129 -7.70463,-3.95401 -0.20318,-0.005 -10.79729,5.47694 -13.92903,7.20726 l -1.49877,0.82807 z m 13.25891,-8.15329 2.00027,-1.03597 6.29545,3.31248 c 3.4625,1.82186 6.31838,3.28781 6.34639,3.25768 0.028,-0.0302 -0.49166,-3.24568 -1.15485,-7.14564 -0.89859,-5.28426 -1.13511,-7.13452 -0.92838,-7.26232 0.38704,-0.23926 9.94587,-9.68922 9.85996,-9.74767 -0.0385,-0.0262 -2.0717,-0.33345 -4.51833,-0.68285 -2.44662,-0.34941 -5.58852,-0.80544 -6.98197,-1.01342 l -2.53357,-0.37813 -3.20469,-6.40609 -3.20467,-6.4061 -3.15857,6.34311 c -1.73721,3.4887 -3.21125,6.3771 -3.27563,6.41866 -0.0644,0.0416 -3.22509,0.52394 -7.02381,1.07197 -3.7987,0.54804 -6.94475,1.02637 -6.99122,1.06298 -0.0465,0.0366 2.21107,2.31799 5.01672,5.06974 l 5.1012,5.00317 -1.11716,6.54064 c -0.61445,3.59735 -1.17523,6.79318 -1.24618,7.10184 -0.11626,0.50571 0.30852,0.33229 4.29488,-1.75345 2.43314,-1.27306 5.32402,-2.78085 6.42416,-3.35063 z m -6.96408,-3.79802 0.93439,-5.43678 -3.99347,-3.93952 c -2.19642,-2.16675 -3.93538,-3.93953 -3.86438,-3.93953 0.23644,0 10.0063,-1.41742 10.50176,-1.52361 0.37063,-0.0795 1.06185,-1.29023 2.8832,-5.05042 1.31763,-2.72026 2.43144,-4.90886 2.47514,-4.86352 0.0437,0.0453 1.15484,2.24222 2.4692,4.88201 1.31439,2.63977 2.42951,4.84224 2.47806,4.89439 0.0687,0.0737 10.37336,1.64725 10.86105,1.65851 0.0629,0.002 -1.66609,1.78551 -3.84233,3.96459 l -3.9568,3.96195 0.85721,5.02205 c 0.47146,2.76213 0.8572,5.20173 0.8572,5.42132 0,0.31869 -0.49604,0.13576 -2.45832,-0.90663 -1.35209,-0.71824 -3.53845,-1.87952 -4.85859,-2.58062 l -2.40026,-1.27475 -4.67184,2.47125 c -2.56951,1.35919 -4.79195,2.51734 -4.93873,2.57368 -0.17138,0.0657 0.0675,-1.84325 0.66751,-5.33437 z"
         id="path365"
         inkscape:label="star" /><path
         style="fill:#feb500;fill-opacity:1;stroke:none;stroke-width:0.234127"
         d="m 249.69941,233.64974 c 0.0921,-0.69804 0.73886,-4.55897 1.43727,-8.57987 l 1.26984,-7.31072 -5.0893,-4.99359 c -2.79911,-2.74648 -5.6152,-5.48045 -6.25797,-6.07549 -0.64278,-0.59504 -1.11688,-1.12408 -1.05358,-1.17565 0.0634,-0.0516 3.90493,-0.64117 8.53695,-1.31023 4.63201,-0.66905 8.49548,-1.29324 8.58549,-1.38708 0.09,-0.0938 1.88784,-3.63089 3.99518,-7.86012 l 3.83152,-7.68949 3.80272,7.73819 c 2.09148,4.25602 3.89572,7.79569 4.00941,7.86596 0.11368,0.0703 3.98265,0.6731 8.5977,1.33966 4.61505,0.66655 8.42308,1.2338 8.46226,1.26054 0.0731,0.0499 -7.93735,7.9553 -10.79938,10.65773 l -1.59719,1.50813 1.43742,8.37753 c 0.79058,4.60764 1.40396,8.46614 1.36306,8.57445 -0.0409,0.10831 -3.44578,-1.58016 -7.56641,-3.75212 -4.12063,-2.17199 -7.58772,-3.95129 -7.70463,-3.95401 -0.20318,-0.005 -10.79729,5.47694 -13.92903,7.20726 l -1.49877,0.82807 z m 13.25891,-8.15329 2.00027,-1.03597 6.29545,3.31248 c 3.4625,1.82186 6.31838,3.28781 6.34639,3.25768 0.028,-0.0302 -0.49166,-3.24568 -1.15485,-7.14564 -0.89859,-5.28426 -1.13511,-7.13452 -0.92838,-7.26232 0.38704,-0.23926 9.94587,-9.68922 9.85996,-9.74767 -0.0385,-0.0262 -2.0717,-0.33345 -4.51833,-0.68285 -2.44662,-0.34941 -5.58852,-0.80544 -6.98197,-1.01342 l -2.53357,-0.37813 -3.20469,-6.40609 -3.20467,-6.4061 -3.15857,6.34311 c -1.73721,3.4887 -3.21125,6.3771 -3.27563,6.41866 -0.0644,0.0416 -3.22509,0.52394 -7.02381,1.07197 -3.7987,0.54804 -6.94475,1.02637 -6.99122,1.06298 -0.0465,0.0366 2.21107,2.31799 5.01672,5.06974 l 5.1012,5.00317 -1.11716,6.54064 c -0.61445,3.59735 -1.17523,6.79318 -1.24618,7.10184 -0.11626,0.50571 0.30852,0.33229 4.29488,-1.75345 2.43314,-1.27306 5.32402,-2.78085 6.42416,-3.35063 z m -6.96408,-3.79802 0.93439,-5.43678 -3.99347,-3.93952 c -2.19642,-2.16675 -3.93538,-3.93953 -3.86438,-3.93953 0.23644,0 10.0063,-1.41742 10.50176,-1.52361 0.37063,-0.0795 1.06185,-1.29023 2.8832,-5.05042 1.31763,-2.72026 2.43144,-4.90886 2.47514,-4.86352 0.0437,0.0453 1.15484,2.24222 2.4692,4.88201 1.31439,2.63977 2.42951,4.84224 2.47806,4.89439 0.0687,0.0737 10.37336,1.64725 10.86105,1.65851 0.0629,0.002 -1.66609,1.78551 -3.84233,3.96459 l -3.9568,3.96195 0.85721,5.02205 c 0.47146,2.76213 0.8572,5.20173 0.8572,5.42132 0,0.31869 -0.49604,0.13576 -2.45832,-0.90663 -1.35209,-0.71824 -3.53845,-1.87952 -4.85859,-2.58062 l -2.40026,-1.27475 -4.67184,2.47125 c -2.56951,1.35919 -4.79195,2.51734 -4.93873,2.57368 -0.17138,0.0657 0.0675,-1.84325 0.66751,-5.33437 z"
         id="path367"
         inkscape:label="star"
         inkscape:export-filename="./star.png"
         inkscape:export-xdpi="96"
         inkscape:export-ydpi="96" /></g><g
       id="g1643"
       inkscape:label="stars"
       transform="translate(0,-236.87585)"><path
         style="display:inline;fill:#feb500;fill-opacity:1;stroke:none;stroke-width:0.601441"
         d="m 342.02142,294.62823 c 0.23659,-1.79317 1.89803,-11.71139 3.69216,-22.04055 l 3.26204,-18.78028 -13.07374,-12.82787 c -7.19054,-7.05534 -14.42471,-14.07855 -16.07589,-15.60713 -1.65122,-1.52858 -2.86912,-2.88761 -2.70651,-3.02009 0.16286,-0.13255 10.03125,-1.64709 21.93029,-3.36581 11.89903,-1.7187 21.82377,-3.32216 22.05499,-3.56322 0.23121,-0.24096 4.84961,-9.32728 10.26309,-20.19161 l 9.84268,-19.75329 9.76868,19.87839 c 5.37273,10.93315 10.00759,20.0261 10.29964,20.20661 0.29204,0.18059 10.2309,1.7291 22.08636,3.44141 11.85545,1.71228 21.63778,3.16947 21.73843,3.23817 0.18778,0.12818 -20.39001,20.43611 -27.74218,27.37829 l -4.10297,3.87419 3.69254,21.52077 c 2.03089,11.83642 3.60658,21.7484 3.50152,22.02663 -0.10507,0.27824 -8.85176,-4.05922 -19.43711,-9.6387 -10.58535,-5.57956 -19.49185,-10.15035 -19.79218,-10.15733 -0.52194,-0.0128 -27.73681,14.06953 -35.78184,18.5145 l -3.85013,2.1272 z m 34.06038,-20.94473 5.13843,-2.66126 16.17218,8.50932 c 8.89471,4.68011 16.23108,8.44595 16.30304,8.36855 0.0719,-0.0776 -1.26301,-8.33773 -2.96666,-18.3562 -2.30836,-13.57458 -2.91595,-18.32765 -2.38489,-18.65595 0.99426,-0.61463 25.54963,-24.89033 25.32894,-25.04047 -0.0989,-0.0673 -5.32192,-0.85659 -11.60699,-1.75415 -6.28504,-0.8976 -14.35617,-2.06908 -17.93576,-2.60334 l -6.50841,-0.97138 -8.23242,-16.45639 -8.23237,-16.45643 -8.11395,16.29462 c -4.46267,8.962 -8.24929,16.38192 -8.41467,16.48868 -0.16543,0.10687 -8.28483,1.34594 -18.04324,2.75376 -9.75835,1.40784 -17.84014,2.6366 -17.95952,2.73065 -0.11945,0.094 5.67995,5.95461 12.88729,13.02349 l 13.10431,12.85248 -2.86983,16.80204 c -1.57844,9.24112 -3.01902,17.45079 -3.20128,18.24369 -0.29865,1.29911 0.79255,0.85362 11.03298,-4.50438 6.25042,-3.27032 13.67671,-7.14363 16.50282,-8.60733 z m -17.8898,-9.7566 2.40033,-13.96638 -10.2587,-10.1201 c -5.64231,-5.5661 -10.10947,-10.12013 -9.92708,-10.12013 0.60738,0 25.70486,-3.64117 26.97763,-3.91396 0.9521,-0.20423 2.72776,-3.31443 7.40656,-12.97386 3.38482,-6.98799 6.24605,-12.61021 6.35831,-12.49374 0.11226,0.11637 2.96663,5.75997 6.34305,12.54123 3.37649,6.78123 6.24109,12.43909 6.36581,12.57305 0.17648,0.18932 26.64779,4.23156 27.9006,4.26049 0.16158,0.005 -4.27996,4.58674 -9.87044,10.18451 l -10.16449,10.17773 2.20206,12.90098 c 1.21112,7.09554 2.20202,13.36256 2.20202,13.92665 0,0.81868 -1.27425,0.34876 -6.31509,-2.32901 -3.47334,-1.84506 -9.08981,-4.82824 -12.48108,-6.62926 l -6.16595,-3.27468 -12.00134,6.34832 c -6.60073,3.49158 -12.30989,6.46671 -12.68694,6.61144 -0.44025,0.16878 0.17339,-4.73506 1.71474,-13.70328 z"
         id="path367-3"
         inkscape:label="star"
         inkscape:export-filename="emotes/star.png"
         inkscape:export-xdpi="96"
         inkscape:export-ydpi="96" /><path
         style="display:inline;fill:#b1b0ad;fill-opacity:1;stroke:none;stroke-width:0.601441"
         d="m 520.97092,294.6287 c 0.23659,-1.79317 1.89803,-11.71139 3.69216,-22.04055 L 527.92512,253.80787 514.85138,240.98 c -7.19054,-7.05534 -14.4247,-14.07855 -16.07589,-15.60713 -1.65122,-1.52858 -2.86912,-2.88761 -2.70651,-3.02009 0.16287,-0.13255 10.03125,-1.64709 21.93029,-3.36581 11.89903,-1.7187 21.82378,-3.32216 22.055,-3.56322 0.2312,-0.24096 4.84961,-9.32728 10.26308,-20.19161 l 9.84268,-19.75329 9.76868,19.87839 c 5.37273,10.93315 10.00759,20.0261 10.29965,20.20661 0.29203,0.18059 10.2309,1.7291 22.08635,3.44141 11.85546,1.71228 21.63779,3.16947 21.73843,3.23817 0.18778,0.12818 -20.39,20.43611 -27.74218,27.37829 l -4.10297,3.87419 3.69254,21.52077 c 2.03089,11.83642 3.60659,21.7484 3.50152,22.02663 -0.10507,0.27824 -8.85175,-4.05922 -19.4371,-9.6387 -10.58536,-5.57956 -19.49185,-10.15035 -19.79219,-10.15733 -0.52194,-0.0128 -27.7368,14.06953 -35.78183,18.5145 l -3.85014,2.1272 z m 34.06039,-20.94473 5.13843,-2.66126 16.17217,8.50932 c 8.89471,4.68011 16.23109,8.44595 16.30304,8.36855 0.0719,-0.0776 -1.26301,-8.33773 -2.96665,-18.3562 -2.30836,-13.57458 -2.91595,-18.32765 -2.38489,-18.65595 0.99425,-0.61463 25.54962,-24.89033 25.32893,-25.04047 -0.0989,-0.0673 -5.32192,-0.85659 -11.60699,-1.75415 -6.28504,-0.8976 -14.35617,-2.06908 -17.93576,-2.60334 l -6.50841,-0.97138 -8.23242,-16.45639 -8.23237,-16.45643 -8.11395,16.29462 c -4.46266,8.962 -8.24928,16.38192 -8.41466,16.48868 -0.16544,0.10687 -8.28484,1.34594 -18.04325,2.75376 -9.75835,1.40784 -17.84014,2.6366 -17.95952,2.73065 -0.11945,0.094 5.67995,5.95461 12.88729,13.02349 l 13.10431,12.85248 -2.86983,16.80204 c -1.57844,9.24112 -3.01901,17.45079 -3.20128,18.24369 -0.29864,1.29911 0.79256,0.85362 11.03298,-4.50438 6.25042,-3.27032 13.67671,-7.14363 16.50283,-8.60733 z m -17.8898,-9.7566 2.40032,-13.96638 -10.2587,-10.1201 c -5.64231,-5.5661 -10.10947,-10.12013 -9.92708,-10.12013 0.60739,0 25.70486,-3.64117 26.97763,-3.91396 0.9521,-0.20423 2.72776,-3.31443 7.40657,-12.97386 3.38481,-6.98799 6.24604,-12.61021 6.3583,-12.49374 0.11226,0.11637 2.96663,5.75997 6.34306,12.54123 3.37648,6.78123 6.24108,12.43909 6.3658,12.57305 0.17648,0.18932 26.64779,4.23156 27.90061,4.26049 0.16157,0.005 -4.27997,4.58674 -9.87045,10.18451 l -10.16449,10.17773 2.20206,12.90098 c 1.21112,7.09554 2.20203,13.36256 2.20203,13.92665 0,0.81868 -1.27426,0.34876 -6.3151,-2.32901 -3.47333,-1.84506 -9.08981,-4.82824 -12.48107,-6.62926 l -6.16595,-3.27468 -12.00135,6.34832 c -6.60073,3.49158 -12.30989,6.46671 -12.68694,6.61144 -0.44025,0.16878 0.17339,-4.73506 1.71475,-13.70328 z"
         id="path326"
         inkscape:label="no-star"
         inkscape:export-filename="emotes/no_star.png"
         inkscape:export-xdpi="96"
         inkscape:export-ydpi="96" /></g><path
       id="path905"
       style="display:inline;fill:none;fill-rule:evenodd;stroke:#ffc800;stroke-width:4.64457;paint-order:markers fill stroke"
       d="m 191.19959,174.21053 c 0,25.43701 -14.52356,48.94178 -38.09978,61.66029 -23.57625,12.71852 -52.62337,12.71852 -76.199609,-1e-5 -23.576236,-12.7185 -38.099795,-36.22327 -38.099795,-61.66028"
       sodipodi:nodetypes="cssc"
       inkscape:label="spinner" /><g
       id="g323"
       style="display:inline"
       transform="translate(-368.19241,221.33276)"
       inkscape:label="smol-star"><path
         style="display:inline;fill:#ffffff;fill-opacity:1;stroke:none;stroke-width:0.366902"
         d="m 905.72529,-12.312572 c 0.14434,-1.093909 1.15789,-7.144387 2.25236,-13.445564 l 1.98996,-11.456677 -7.97548,-7.825494 c -4.38649,-4.304011 -8.79961,-8.588444 -9.80689,-9.520937 -1.00731,-0.932479 -1.75027,-1.761544 -1.65107,-1.842361 0.0993,-0.08093 6.11944,-1.004797 13.37829,-2.053281 7.25887,-1.048468 13.31332,-2.026639 13.45439,-2.173689 0.14112,-0.147033 2.95844,-5.689996 6.26085,-12.317645 l 6.00442,-12.050254 5.95926,12.12657 c 3.27756,6.669635 6.10501,12.216678 6.28316,12.3268 0.17817,0.110115 6.24123,1.054808 13.47354,2.099381 7.23226,1.044555 13.19984,1.933496 13.26124,1.975414 0.11451,0.07824 -12.43868,12.466785 -16.92376,16.70178 l -2.50298,2.3634 2.25258,13.128481 c 1.23894,7.220654 2.20016,13.267339 2.13608,13.437067 -0.0641,0.169745 -5.39991,-2.476269 -11.85739,-5.879957 -6.45745,-3.403756 -11.89075,-6.1921 -12.07397,-6.196365 -0.3184,-0.0084 -16.92049,8.582948 -21.82827,11.294553 l -2.34871,1.297665 z m 20.77811,-12.777071 3.13465,-1.623481 9.86564,5.191013 c 5.42608,2.855047 9.90156,5.152348 9.94545,5.10512 0.0439,-0.04738 -0.77049,-5.08632 -1.80977,-11.197972 -1.4082,-8.280991 -1.77883,-11.180553 -1.45487,-11.380817 0.60654,-0.374951 15.58622,-15.184041 15.45161,-15.275633 -0.0603,-0.04097 -3.24657,-0.522556 -7.0807,-1.0701 -3.83411,-0.547562 -8.7578,-1.262221 -10.9415,-1.588139 l -3.97036,-0.592582 -5.02209,-10.039009 -5.02207,-10.039043 -4.94981,9.940335 c -2.72238,5.467154 -5.03237,9.993585 -5.13325,10.058705 -0.1009,0.06526 -5.05406,0.821089 -11.00707,1.679898 -5.95294,0.858842 -10.88314,1.608439 -10.95597,1.665803 -0.0727,0.05734 3.46497,3.632533 7.86173,7.944823 l 7.99412,7.840498 -1.75072,10.249865 c -0.96289,5.637437 -1.84169,10.645654 -1.95288,11.129344 -0.1822,0.79251 0.48346,0.520735 6.73051,-2.74784 3.81301,-1.995026 8.34331,-4.357885 10.06735,-5.250788 z m -10.91346,-5.951906 1.46429,-8.520004 -6.25818,-6.173652 c -3.44202,-3.395527 -6.16715,-6.173652 -6.05588,-6.173652 0.37052,0 15.68091,-2.221255 16.45735,-2.387663 0.58084,-0.124602 1.66406,-2.021934 4.51829,-7.914556 2.06486,-4.262936 3.81032,-7.692691 3.87881,-7.621636 0.0684,0.07099 1.80976,3.513794 3.8695,7.650621 2.05978,4.136795 3.8073,7.588303 3.88337,7.67003 0.10771,0.115512 16.25618,2.581402 17.02042,2.599056 0.0986,0.0034 -2.61093,2.79809 -6.02133,6.212939 l -6.20073,6.208792 1.34334,7.870092 c 0.73882,4.328544 1.34331,8.151662 1.34331,8.495774 0,0.499421 -0.77733,0.21276 -3.85245,-1.420788 -2.11885,-1.125559 -5.54512,-2.945408 -7.6139,-4.044089 l -3.76148,-1.99769 -7.32126,3.872727 c -4.02669,2.129984 -7.50949,3.944926 -7.73953,4.033213 -0.26857,0.103028 0.10572,-2.888549 1.04606,-8.359514 z"
         id="path475"
         inkscape:label="star"
         inkscape:export-filename="emotes/smolstar.png"
         inkscape:export-xdpi="96"
         inkscape:export-ydpi="96" /><rect
         style="fill:none;fill-rule:evenodd;stroke:none;stroke-width:0.585658;paint-order:markers fill stroke"
         id="rect319"
         width="128"
         height="128"
         x="868.19031"
         y="-111.66108"
         inkscape:label="emote"
         inkscape:export-filename="emotes/smolstar.png"
         inkscape:export-xdpi="96"
         inkscape:export-ydpi="96" /></g><g
       id="g318"
       style="display:inline"
       transform="translate(175.6962,46.57985)"
       inkscape:export-filename="../../../Downloads/remove2.png"
       inkscape:export-xdpi="96"
       inkscape:export-ydpi="96"
       inkscape:label="remove"><rect
         style="fill:none;fill-rule:evenodd;stroke:none;stroke-width:0.585658;paint-order:markers fill stroke"
         id="rect316"
         width="128"
         height="128"
         x="138.42386"
         y="266.83795"
         inkscape:label="emote"
         inkscape:export-filename="emotes/smolstar.png"
         inkscape:export-xdpi="96"
         inkscape:export-ydpi="96" /><path
         style="fill:#ff3f62;fill-opacity:1;stroke:none;stroke-width:0.205281"
         d="m 202.37312,330.8428 v -14.17085 l 24.68502,0.0546 24.68503,0.0546 0.87037,0.56579 c 1.11931,0.72761 1.8402,1.82931 2.10269,3.2134 0.27685,1.45982 0.27685,19.10528 0,20.5651 -0.26249,1.38409 -0.98338,2.48579 -2.10269,3.2134 l -0.87037,0.56579 -24.68503,0.0546 -24.68502,0.0546 z"
         id="path329-6" /><path
         style="fill:#ff0c38;fill-opacity:1;stroke:none;stroke-width:0.205281"
         d="m 153.78856,344.99807 c -1.58343,-0.3131 -2.67722,-1.14853 -3.48202,-2.65954 -0.3594,-0.67478 -0.38268,-1.37406 -0.38268,-11.49573 0,-10.65044 0.005,-10.78691 0.44309,-11.59837 0.56611,-1.04913 1.39238,-1.83042 2.43085,-2.29852 0.77405,-0.34891 2.21863,-0.37335 25.19822,-0.4263 l 24.3771,-0.0562 v 14.37452 14.37451 l -23.8639,-0.0225 c -13.12514,-0.0124 -24.24944,-0.0987 -24.72066,-0.19189 z"
         id="path327-7" /></g><g
       id="g417"
       style="display:inline"
       transform="translate(175.6962,-129.30773)"
       inkscape:export-filename="../../../Downloads/add2.png"
       inkscape:export-xdpi="96"
       inkscape:export-ydpi="96"
       inkscape:label="add"><rect
         style="fill:none;fill-rule:evenodd;stroke:none;stroke-width:0.585658;paint-order:markers fill stroke"
         id="rect403"
         width="128"
         height="128"
         x="138.42384"
         y="272.79224"
         inkscape:label="emote"
         inkscape:export-filename="emotes/smolstar.png"
         inkscape:export-xdpi="96"
         inkscape:export-ydpi="96" /><path
         id="path411"
         style="fill:#009439;fill-opacity:1;stroke:none;stroke-width:0.205283"
         d="m 202.3729,322.41857 -24.37722,0.0561 c -22.97971,0.053 -24.42347,0.0773 -25.19752,0.42618 -1.03847,0.4681 -1.866,1.24839 -2.43211,2.29752 -0.43787,0.81147 -0.44221,0.94771 -0.44221,11.59821 0,10.12172 0.0235,10.82248 0.38292,11.49726 0.8048,1.51102 1.8981,2.34653 3.48155,2.65962 0.47122,0.0932 11.59486,0.17829 24.72007,0.19066 l 23.86452,0.0224 v -0.19867 l 24.68482,-0.0545 24.68643,-0.0545 0.86999,-0.56557 c 1.11931,-0.72761 1.83958,-1.82988 2.10206,-3.21398 0.27685,-1.45982 0.27685,-19.10418 0,-20.56401 -0.26248,-1.3841 -0.98275,-2.48636 -2.10206,-3.21398 l -0.86999,-0.56557 -24.68643,-0.0545 -24.68482,-0.0545 z" /><path
         id="path413"
         style="fill:#00c17b;fill-opacity:1;stroke:none;stroke-width:0.205283"
         d="m 202.41936,284.29143 c -10.12173,0 -10.82088,0.0235 -11.49566,0.38292 -1.51103,0.8048 -2.34653,1.8997 -2.65963,3.48314 -0.0932,0.47122 -0.17988,11.59487 -0.19226,24.72008 l -0.0224,23.86451 h 0.19867 l 0.0545,24.68483 0.0545,24.68483 0.56557,0.86998 c 0.72762,1.11932 1.82988,1.84118 3.21398,2.10367 1.45983,0.27685 19.10579,0.27685 20.56562,0 1.3841,-0.26249 2.48475,-0.98435 3.21237,-2.10367 l 0.56557,-0.86998 0.0545,-24.68483 0.0561,-24.68483 h 0.20829 l -0.0561,-24.37721 c -0.053,-22.97971 -0.0773,-24.42507 -0.42618,-25.19913 -0.4681,-1.03847 -1.25,-1.86439 -2.29913,-2.43051 -0.81147,-0.43787 -0.94771,-0.4438 -11.5982,-0.4438 z" /></g></g></svg>
