<?xml version="1.0" encoding="UTF-8" standalone="no"?>
<!-- Created with Inkscape (http://www.inkscape.org/) -->

<svg
   version="1.1"
   id="svg2"
   width="230"
   height="350"
   viewBox="0 0 230 350"
   sodipodi:docname="embeds.svg"
   xml:space="preserve"
   inkscape:version="1.2.2 (b0a8486541, 2022-12-01)"
   inkscape:export-filename="stars.png"
   inkscape:export-xdpi="96"
   inkscape:export-ydpi="96"
   xmlns:inkscape="http://www.inkscape.org/namespaces/inkscape"
   xmlns:sodipodi="http://sodipodi.sourceforge.net/DTD/sodipodi-0.dtd"
   xmlns="http://www.w3.org/2000/svg"
   xmlns:svg="http://www.w3.org/2000/svg"><defs
     id="defs6" /><sodipodi:namedview
     id="namedview4"
     pagecolor="#2b2d42"
     bordercolor="#ffffff"
     borderopacity="1"
     inkscape:showpageshadow="0"
     inkscape:pageopacity="0"
     inkscape:pagecheckerboard="1"
     inkscape:deskcolor="#505050"
     showgrid="false"
     inkscape:zoom="1.3429056"
     inkscape:cx="335.09428"
     inkscape:cy="157.12199"
     inkscape:current-layer="g374"
     showborder="false" /><g
     inkscape:groupmode="layer"
     inkscape:label="Layer 1"
     id="g8"><g
       id="g1800"
       inkscape:label="colors"
       transform="matrix(3.7795275,0,0,3.7795275,123.15188,-70.616143)"><rect
         style="opacity:1;fill:#2b2d42;fill-opacity:1;stroke:none;stroke-width:0.0613833;stroke-linecap:round;stroke-linejoin:round"
         id="rect1653"
         width="57.955578"
         height="39.289127"
         x="-118.41911"
         y="-57.586948" /><rect
         style="opacity:1;fill:#6b3ebd;fill-opacity:1;stroke:none;stroke-width:0.0613833;stroke-linecap:round;stroke-linejoin:round"
         id="rect1793"
         width="57.955578"
         height="39.289127"
         x="-118.41911"
         y="4.6260295" /><rect
         style="opacity:1;fill:#feb500;fill-opacity:1;stroke:none;stroke-width:0.0613833;stroke-linecap:round;stroke-linejoin:round"
         id="rect1795"
         width="57.955578"
         height="39.289127"
         x="-118.41911"
         y="66.4207" /><rect
         style="opacity:1;fill:#fed33c;fill-opacity:1;stroke:none;stroke-width:0.0613833;stroke-linecap:round;stroke-linejoin:round"
         id="rect2229"
         width="57.955578"
         height="39.289127"
         x="-118.41911"
         y="122.19254" /></g><g
       id="g374"
       transform="matrix(0.6654058,0,0,0.6654058,18.573585,34.537364)"
       style="display:inline"><path
         style="fill:#feb500;fill-opacity:1;stroke:none;stroke-width:0.234127"
         d="m 9.6994124,233.64974 c 0.09208,-0.69804 0.7388556,-4.55897 1.4372716,-8.57987 l 1.26984,-7.31072 -5.0893016,-4.99359 c -2.799115,-2.74648 -5.615202,-5.48045 -6.257976,-6.07549 -0.64277304,-0.59504 -1.11688004,-1.12408 -1.05357604,-1.17565 0.06336,-0.0516 3.90493404,-0.64117 8.53694604,-1.31023 4.6320106,-0.66905 8.4954796,-1.29324 8.5854946,-1.38708 0.09001,-0.0938 1.887843,-3.63089 3.995182,-7.86012 l 3.831513,-7.68949 3.80272,7.73819 c 2.091488,4.25602 3.895727,7.79569 4.009411,7.86596 0.11368,0.0703 3.982649,0.6731 8.597702,1.33966 4.615049,0.66655 8.423079,1.2338 8.462265,1.26054 0.0731,0.0499 -7.937354,7.9553 -10.799389,10.65773 l -1.59719,1.50813 1.437426,8.37753 c 0.790583,4.60764 1.403959,8.46614 1.363059,8.57445 -0.0409,0.10831 -3.445783,-1.58016 -7.566415,-3.75212 -4.120628,-2.17199 -7.587718,-3.95129 -7.704627,-3.95401 -0.203179,-0.005 -10.797286,5.47694 -13.929032,7.20726 l -1.4987626,0.82807 z m 13.2589086,-8.15329 2.000264,-1.03597 6.295454,3.31248 c 3.462502,1.82186 6.318384,3.28781 6.34639,3.25768 0.02802,-0.0302 -0.491661,-3.24568 -1.154849,-7.14564 -0.898587,-5.28426 -1.135108,-7.13452 -0.928383,-7.26232 0.387039,-0.23926 9.945874,-9.68922 9.859967,-9.74767 -0.03851,-0.0262 -2.071704,-0.33345 -4.518332,-0.68285 -2.446624,-0.34941 -5.588519,-0.80544 -6.981973,-1.01342 l -2.533565,-0.37813 -3.20469,-6.40609 -3.204674,-6.4061 -3.158575,6.34311 c -1.737204,3.4887 -3.211246,6.3771 -3.275629,6.41866 -0.06442,0.0416 -3.225091,0.52394 -7.023802,1.07197 -3.7987016,0.54804 -6.9447556,1.02637 -6.9912196,1.06298 -0.04646,0.0366 2.211061,2.31799 5.016714,5.06974 l 5.1012046,5.00317 -1.117162,6.54064 c -0.614449,3.59735 -1.175229,6.79318 -1.24618,7.10184 -0.116257,0.50571 0.308517,0.33229 4.294877,-1.75345 2.433143,-1.27306 5.324023,-2.78085 6.424163,-3.35063 z m -6.964085,-3.79802 0.934394,-5.43678 -3.993472,-3.93952 c -2.196418,-2.16675 -3.9353826,-3.93953 -3.8643796,-3.93953 0.236443,0 10.0063046,-1.41742 10.5017596,-1.52361 0.37063,-0.0795 1.06185,-1.29023 2.883197,-5.05042 1.317636,-2.72026 2.431444,-4.90886 2.475142,-4.86352 0.04371,0.0453 1.154841,2.24222 2.469205,4.88201 1.314384,2.63977 2.429505,4.84224 2.478054,4.89439 0.06867,0.0737 10.373363,1.64725 10.861054,1.65851 0.06291,0.002 -1.666088,1.78551 -3.842327,3.96459 l -3.956807,3.96195 0.857213,5.02205 c 0.471465,2.76213 0.857202,5.20173 0.857202,5.42132 0,0.31869 -0.496039,0.13576 -2.458323,-0.90663 -1.352084,-0.71824 -3.53845,-1.87952 -4.858585,-2.58062 l -2.400262,-1.27475 -4.671843,2.47125 c -2.569511,1.35919 -4.791944,2.51734 -4.93873,2.57368 -0.171376,0.0657 0.06752,-1.84325 0.667508,-5.33437 z"
         id="path300"
         inkscape:label="star"
         inkscape:export-filename="./path300.png"
         inkscape:export-xdpi="96"
         inkscape:export-ydpi="96" /><path
         style="fill:#feb500;fill-opacity:1;stroke:none;stroke-width:0.234127"
         d="m 69.699412,233.64974 c 0.09208,-0.69804 0.738856,-4.55897 1.437272,-8.57987 l 1.26984,-7.31072 -5.089302,-4.99359 c -2.799115,-2.74648 -5.615202,-5.48045 -6.257976,-6.07549 -0.642773,-0.59504 -1.11688,-1.12408 -1.053576,-1.17565 0.06336,-0.0516 3.904934,-0.64117 8.536946,-1.31023 4.632011,-0.66905 8.49548,-1.29324 8.585495,-1.38708 0.09001,-0.0938 1.887843,-3.63089 3.995182,-7.86012 l 3.831513,-7.68949 3.80272,7.73819 c 2.091488,4.25602 3.895727,7.79569 4.009411,7.86596 0.11368,0.0703 3.982649,0.6731 8.597703,1.33966 4.61505,0.66655 8.42308,1.2338 8.46226,1.26054 0.0731,0.0499 -7.93735,7.9553 -10.799385,10.65773 l -1.59719,1.50813 1.437426,8.37753 c 0.790583,4.60764 1.403959,8.46614 1.363059,8.57445 -0.0409,0.10831 -3.445783,-1.58016 -7.566415,-3.75212 -4.120628,-2.17199 -7.587718,-3.95129 -7.704627,-3.95401 -0.203179,-0.005 -10.797286,5.47694 -13.929032,7.20726 l -1.498763,0.82807 z m 13.258909,-8.15329 2.000264,-1.03597 6.295454,3.31248 c 3.462502,1.82186 6.318384,3.28781 6.34639,3.25768 0.02802,-0.0302 -0.491661,-3.24568 -1.154849,-7.14564 -0.898587,-5.28426 -1.135108,-7.13452 -0.928383,-7.26232 0.387039,-0.23926 9.945873,-9.68922 9.859963,-9.74767 -0.0385,-0.0262 -2.0717,-0.33345 -4.51833,-0.68285 -2.446622,-0.34941 -5.588517,-0.80544 -6.981971,-1.01342 l -2.533565,-0.37813 -3.20469,-6.40609 -3.204674,-6.4061 -3.158575,6.34311 c -1.737204,3.4887 -3.211246,6.3771 -3.275629,6.41866 -0.06442,0.0416 -3.225091,0.52394 -7.023802,1.07197 -3.798702,0.54804 -6.944756,1.02637 -6.99122,1.06298 -0.04646,0.0366 2.211061,2.31799 5.016714,5.06974 l 5.101205,5.00317 -1.117162,6.54064 c -0.614449,3.59735 -1.175229,6.79318 -1.24618,7.10184 -0.116257,0.50571 0.308517,0.33229 4.294877,-1.75345 2.433143,-1.27306 5.324023,-2.78085 6.424163,-3.35063 z m -6.964085,-3.79802 0.934394,-5.43678 -3.993472,-3.93952 c -2.196418,-2.16675 -3.935383,-3.93953 -3.86438,-3.93953 0.236443,0 10.006305,-1.41742 10.50176,-1.52361 0.37063,-0.0795 1.06185,-1.29023 2.883197,-5.05042 1.317636,-2.72026 2.431444,-4.90886 2.475142,-4.86352 0.04371,0.0453 1.154841,2.24222 2.469205,4.88201 1.314384,2.63977 2.429505,4.84224 2.478054,4.89439 0.06867,0.0737 10.373364,1.64725 10.861054,1.65851 0.0629,0.002 -1.666088,1.78551 -3.842327,3.96459 l -3.956807,3.96195 0.857213,5.02205 c 0.471465,2.76213 0.857202,5.20173 0.857202,5.42132 0,0.31869 -0.496039,0.13576 -2.458323,-0.90663 -1.352084,-0.71824 -3.53845,-1.87952 -4.858585,-2.58062 l -2.400262,-1.27475 -4.671843,2.47125 c -2.569511,1.35919 -4.791944,2.51734 -4.93873,2.57368 -0.171376,0.0657 0.06752,-1.84325 0.667508,-5.33437 z"
         id="path361"
         inkscape:label="star" /><path
         style="fill:#feb500;fill-opacity:1;stroke:none;stroke-width:0.234127"
         d="m 129.69941,233.64974 c 0.0921,-0.69804 0.73886,-4.55897 1.43727,-8.57987 l 1.26984,-7.31072 -5.0893,-4.99359 c -2.79911,-2.74648 -5.6152,-5.48045 -6.25797,-6.07549 -0.64278,-0.59504 -1.11688,-1.12408 -1.05358,-1.17565 0.0634,-0.0516 3.90493,-0.64117 8.53695,-1.31023 4.63201,-0.66905 8.49548,-1.29324 8.58549,-1.38708 0.09,-0.0938 1.88784,-3.63089 3.99518,-7.86012 l 3.83152,-7.68949 3.80272,7.73819 c 2.09148,4.25602 3.89572,7.79569 4.00941,7.86596 0.11368,0.0703 3.98265,0.6731 8.5977,1.33966 4.61505,0.66655 8.42308,1.2338 8.46226,1.26054 0.0731,0.0499 -7.93735,7.9553 -10.79938,10.65773 l -1.59719,1.50813 1.43742,8.37753 c 0.79058,4.60764 1.40396,8.46614 1.36306,8.57445 -0.0409,0.10831 -3.44578,-1.58016 -7.56641,-3.75212 -4.12063,-2.17199 -7.58772,-3.95129 -7.70463,-3.95401 -0.20318,-0.005 -10.79729,5.47694 -13.92903,7.20726 l -1.49877,0.82807 z m 13.25891,-8.15329 2.00027,-1.03597 6.29545,3.31248 c 3.4625,1.82186 6.31838,3.28781 6.34639,3.25768 0.028,-0.0302 -0.49166,-3.24568 -1.15485,-7.14564 -0.89859,-5.28426 -1.13511,-7.13452 -0.92838,-7.26232 0.38704,-0.23926 9.94587,-9.68922 9.85996,-9.74767 -0.0385,-0.0262 -2.0717,-0.33345 -4.51833,-0.68285 -2.44662,-0.34941 -5.58852,-0.80544 -6.98197,-1.01342 l -2.53357,-0.37813 -3.20469,-6.40609 -3.20467,-6.4061 -3.15857,6.34311 c -1.73721,3.4887 -3.21125,6.3771 -3.27563,6.41866 -0.0644,0.0416 -3.22509,0.52394 -7.02381,1.07197 -3.7987,0.54804 -6.94475,1.02637 -6.99122,1.06298 -0.0465,0.0366 2.21107,2.31799 5.01672,5.06974 l 5.1012,5.00317 -1.11716,6.54064 c -0.61445,3.59735 -1.17523,6.79318 -1.24618,7.10184 -0.11626,0.50571 0.30852,0.33229 4.29488,-1.75345 2.43314,-1.27306 5.32402,-2.78085 6.42416,-3.35063 z m -6.96408,-3.79802 0.93439,-5.43678 -3.99347,-3.93952 c -2.19642,-2.16675 -3.93538,-3.93953 -3.86438,-3.93953 0.23644,0 10.0063,-1.41742 10.50176,-1.52361 0.37063,-0.0795 1.06185,-1.29023 2.8832,-5.05042 1.31763,-2.72026 2.43144,-4.90886 2.47514,-4.86352 0.0437,0.0453 1.15484,2.24222 2.4692,4.88201 1.31439,2.63977 2.42951,4.84224 2.47806,4.89439 0.0687,0.0737 10.37336,1.64725 10.86105,1.65851 0.0629,0.002 -1.66609,1.78551 -3.84233,3.96459 l -3.9568,3.96195 0.85721,5.02205 c 0.47146,2.76213 0.8572,5.20173 0.8572,5.42132 0,0.31869 -0.49604,0.13576 -2.45832,-0.90663 -1.35209,-0.71824 -3.53845,-1.87952 -4.85859,-2.58062 l -2.40026,-1.27475 -4.67184,2.47125 c -2.56951,1.35919 -4.79195,2.51734 -4.93873,2.57368 -0.17138,0.0657 0.0675,-1.84325 0.66751,-5.33437 z"
         id="path363"
         inkscape:label="star" /><path
         style="fill:#feb500;fill-opacity:1;stroke:none;stroke-width:0.234127"
         d="m 189.69941,233.64974 c 0.0921,-0.69804 0.73886,-4.55897 1.43727,-8.57987 l 1.26984,-7.31072 -5.0893,-4.99359 c -2.79911,-2.74648 -5.6152,-5.48045 -6.25797,-6.07549 -0.64278,-0.59504 -1.11688,-1.12408 -1.05358,-1.17565 0.0634,-0.0516 3.90493,-0.64117 8.53695,-1.31023 4.63201,-0.66905 8.49548,-1.29324 8.58549,-1.38708 0.09,-0.0938 1.88784,-3.63089 3.99518,-7.86012 l 3.83152,-7.68949 3.80272,7.73819 c 2.09148,4.25602 3.89572,7.79569 4.00941,7.86596 0.11368,0.0703 3.98265,0.6731 8.5977,1.33966 4.61505,0.66655 8.42308,1.2338 8.46226,1.26054 0.0731,0.0499 -7.93735,7.9553 -10.79938,10.65773 l -1.59719,1.50813 1.43742,8.37753 c 0.79058,4.60764 1.40396,8.46614 1.36306,8.57445 -0.0409,0.10831 -3.44578,-1.58016 -7.56641,-3.75212 -4.12063,-2.17199 -7.58772,-3.95129 -7.70463,-3.95401 -0.20318,-0.005 -10.79729,5.47694 -13.92903,7.20726 l -1.49877,0.82807 z m 13.25891,-8.15329 2.00027,-1.03597 6.29545,3.31248 c 3.4625,1.82186 6.31838,3.28781 6.34639,3.25768 0.028,-0.0302 -0.49166,-3.24568 -1.15485,-7.14564 -0.89859,-5.28426 -1.13511,-7.13452 -0.92838,-7.26232 0.38704,-0.23926 9.94587,-9.68922 9.85996,-9.74767 -0.0385,-0.0262 -2.0717,-0.33345 -4.51833,-0.68285 -2.44662,-0.34941 -5.58852,-0.80544 -6.98197,-1.01342 l -2.53357,-0.37813 -3.20469,-6.40609 -3.20467,-6.4061 -3.15857,6.34311 c -1.73721,3.4887 -3.21125,6.3771 -3.27563,6.41866 -0.0644,0.0416 -3.22509,0.52394 -7.02381,1.07197 -3.7987,0.54804 -6.94475,1.02637 -6.99122,1.06298 -0.0465,0.0366 2.21107,2.31799 5.01672,5.06974 l 5.1012,5.00317 -1.11716,6.54064 c -0.61445,3.59735 -1.17523,6.79318 -1.24618,7.10184 -0.11626,0.50571 0.30852,0.33229 4.29488,-1.75345 2.43314,-1.27306 5.32402,-2.78085 6.42416,-3.35063 z m -6.96408,-3.79802 0.93439,-5.43678 -3.99347,-3.93952 c -2.19642,-2.16675 -3.93538,-3.93953 -3.86438,-3.93953 0.23644,0 10.0063,-1.41742 10.50176,-1.52361 0.37063,-0.0795 1.06185,-1.29023 2.8832,-5.05042 1.31763,-2.72026 2.43144,-4.90886 2.47514,-4.86352 0.0437,0.0453 1.15484,2.24222 2.4692,4.88201 1.31439,2.63977 2.42951,4.84224 2.47806,4.89439 0.0687,0.0737 10.37336,1.64725 10.86105,1.65851 0.0629,0.002 -1.66609,1.78551 -3.84233,3.96459 l -3.9568,3.96195 0.85721,5.02205 c 0.47146,2.76213 0.8572,5.20173 0.8572,5.42132 0,0.31869 -0.49604,0.13576 -2.45832,-0.90663 -1.35209,-0.71824 -3.53845,-1.87952 -4.85859,-2.58062 l -2.40026,-1.27475 -4.67184,2.47125 c -2.56951,1.35919 -4.79195,2.51734 -4.93873,2.57368 -0.17138,0.0657 0.0675,-1.84325 0.66751,-5.33437 z"
         id="path365"
         inkscape:label="star" /><path
         style="fill:#feb500;fill-opacity:1;stroke:none;stroke-width:0.234127"
         d="m 249.69941,233.64974 c 0.0921,-0.69804 0.73886,-4.55897 1.43727,-8.57987 l 1.26984,-7.31072 -5.0893,-4.99359 c -2.79911,-2.74648 -5.6152,-5.48045 -6.25797,-6.07549 -0.64278,-0.59504 -1.11688,-1.12408 -1.05358,-1.17565 0.0634,-0.0516 3.90493,-0.64117 8.53695,-1.31023 4.63201,-0.66905 8.49548,-1.29324 8.58549,-1.38708 0.09,-0.0938 1.88784,-3.63089 3.99518,-7.86012 l 3.83152,-7.68949 3.80272,7.73819 c 2.09148,4.25602 3.89572,7.79569 4.00941,7.86596 0.11368,0.0703 3.98265,0.6731 8.5977,1.33966 4.61505,0.66655 8.42308,1.2338 8.46226,1.26054 0.0731,0.0499 -7.93735,7.9553 -10.79938,10.65773 l -1.59719,1.50813 1.43742,8.37753 c 0.79058,4.60764 1.40396,8.46614 1.36306,8.57445 -0.0409,0.10831 -3.44578,-1.58016 -7.56641,-3.75212 -4.12063,-2.17199 -7.58772,-3.95129 -7.70463,-3.95401 -0.20318,-0.005 -10.79729,5.47694 -13.92903,7.20726 l -1.49877,0.82807 z m 13.25891,-8.15329 2.00027,-1.03597 6.29545,3.31248 c 3.4625,1.82186 6.31838,3.28781 6.34639,3.25768 0.028,-0.0302 -0.49166,-3.24568 -1.15485,-7.14564 -0.89859,-5.28426 -1.13511,-7.13452 -0.92838,-7.26232 0.38704,-0.23926 9.94587,-9.68922 9.85996,-9.74767 -0.0385,-0.0262 -2.0717,-0.33345 -4.51833,-0.68285 -2.44662,-0.34941 -5.58852,-0.80544 -6.98197,-1.01342 l -2.53357,-0.37813 -3.20469,-6.40609 -3.20467,-6.4061 -3.15857,6.34311 c -1.73721,3.4887 -3.21125,6.3771 -3.27563,6.41866 -0.0644,0.0416 -3.22509,0.52394 -7.02381,1.07197 -3.7987,0.54804 -6.94475,1.02637 -6.99122,1.06298 -0.0465,0.0366 2.21107,2.31799 5.01672,5.06974 l 5.1012,5.00317 -1.11716,6.54064 c -0.61445,3.59735 -1.17523,6.79318 -1.24618,7.10184 -0.11626,0.50571 0.30852,0.33229 4.29488,-1.75345 2.43314,-1.27306 5.32402,-2.78085 6.42416,-3.35063 z m -6.96408,-3.79802 0.93439,-5.43678 -3.99347,-3.93952 c -2.19642,-2.16675 -3.93538,-3.93953 -3.86438,-3.93953 0.23644,0 10.0063,-1.41742 10.50176,-1.52361 0.37063,-0.0795 1.06185,-1.29023 2.8832,-5.05042 1.31763,-2.72026 2.43144,-4.90886 2.47514,-4.86352 0.0437,0.0453 1.15484,2.24222 2.4692,4.88201 1.31439,2.63977 2.42951,4.84224 2.47806,4.89439 0.0687,0.0737 10.37336,1.64725 10.86105,1.65851 0.0629,0.002 -1.66609,1.78551 -3.84233,3.96459 l -3.9568,3.96195 0.85721,5.02205 c 0.47146,2.76213 0.8572,5.20173 0.8572,5.42132 0,0.31869 -0.49604,0.13576 -2.45832,-0.90663 -1.35209,-0.71824 -3.53845,-1.87952 -4.85859,-2.58062 l -2.40026,-1.27475 -4.67184,2.47125 c -2.56951,1.35919 -4.79195,2.51734 -4.93873,2.57368 -0.17138,0.0657 0.0675,-1.84325 0.66751,-5.33437 z"
         id="path367"
         inkscape:label="star"
         inkscape:export-filename="./star.png"
         inkscape:export-xdpi="96"
         inkscape:export-ydpi="96" /><path
         style="display:inline;fill:#feb500;fill-opacity:1;stroke:none;stroke-width:0.904966"
         d="m 467.72372,374.71576 c 0.35599,-2.69812 2.8559,-17.62169 5.55545,-33.16359 l 4.90828,-28.25797 -19.67156,-19.30161 c -10.81934,-10.61591 -21.70431,-21.18347 -24.18879,-23.48346 -2.48453,-2.3 -4.31706,-4.34488 -4.07238,-4.54422 0.24505,-0.19944 15.09364,-2.4783 32.99768,-5.0644 17.90401,-2.58606 32.8374,-4.99873 33.18531,-5.36145 0.34788,-0.36256 7.29703,-14.0344 15.44248,-30.38155 l 14.8099,-29.72202 14.69857,29.91026 c 8.08415,16.4507 15.05804,30.13251 15.49748,30.40412 0.43941,0.27173 15.39405,2.60172 33.23251,5.17816 17.83845,2.5764 32.55755,4.76898 32.70899,4.87234 0.28255,0.19288 -30.68007,30.74945 -41.74261,41.19509 l -6.17359,5.82935 5.55603,32.38148 c 3.05581,17.80981 5.4267,32.72399 5.26861,33.14264 -0.15809,0.41865 -13.3189,-6.10776 -29.24628,-14.50299 -15.92738,-8.39535 -29.32865,-15.27284 -29.78054,-15.28335 -0.78535,-0.0193 -41.73453,21.1699 -53.83958,27.85807 l -5.79316,3.20072 z m 51.24938,-31.51474 7.7316,-4.00431 24.33366,12.80366 c 13.38353,7.04199 24.4223,12.7083 24.53057,12.59184 0.10823,-0.11673 -1.90041,-12.54546 -4.46382,-27.61989 -3.4733,-20.42514 -4.38752,-27.57691 -3.58845,-28.07089 1.49602,-0.9248 38.44356,-37.45153 38.11149,-37.67746 -0.14881,-0.10127 -8.00769,-1.28887 -17.4646,-2.6394 -9.45687,-1.35057 -21.60118,-3.11325 -26.98726,-3.91715 l -9.79295,-1.46158 -12.38702,-24.76132 -12.38694,-24.76136 -12.20875,24.51789 c -6.7148,13.48479 -12.41238,24.64926 -12.66122,24.8099 -0.24893,0.1608 -12.46588,2.02518 -27.14899,4.14347 -14.68303,2.11832 -26.84339,3.9672 -27.02301,4.10871 -0.17973,0.14147 8.5464,8.95968 19.39102,19.59596 l 19.71756,19.33864 -4.31813,25.28139 c -2.37502,13.90476 -4.5426,26.25754 -4.81684,27.45059 -0.44937,1.95471 1.19252,1.2844 16.60091,-6.77757 9.40476,-4.92073 20.57882,-10.74876 24.83117,-12.95112 z m -26.91811,-14.6804 3.61168,-21.01467 -15.43588,-15.22734 c -8.48977,-8.37509 -15.21134,-15.22738 -14.9369,-15.22738 0.91391,0 38.67713,-5.47872 40.59222,-5.88918 1.43259,-0.30729 4.10435,-4.9871 11.14438,-19.52128 5.093,-10.51456 9.39819,-18.97411 9.5671,-18.79886 0.16891,0.1751 4.46378,8.66681 9.54415,18.87033 5.08048,10.20345 9.39073,18.71661 9.57839,18.91818 0.26554,0.28487 40.09592,6.36708 41.98098,6.4106 0.24312,0.008 -6.4399,6.9015 -14.85168,15.32425 l -15.29413,15.31404 3.31336,19.41162 c 1.82232,10.6764 3.31331,20.10613 3.31331,20.95491 0,1.23183 -1.91733,0.52475 -9.50209,-3.50438 -5.2262,-2.77619 -13.67709,-7.26487 -18.7798,-9.97481 l -9.27767,-4.92727 -18.05797,9.55207 c -9.93187,5.25365 -18.52222,9.73022 -19.08956,9.94799 -0.66243,0.25395 0.2609,-7.12467 2.58011,-20.61882 z"
         id="path367-3"
         inkscape:label="star"
         inkscape:export-filename="./star.png"
         inkscape:export-xdpi="96"
         inkscape:export-ydpi="96" /><path
         style="display:inline;fill:#b1b0ad;fill-opacity:1;stroke:none;stroke-width:0.904966"
         d="m 690.53715,374.71576 c 0.35599,-2.69812 2.8559,-17.62169 5.55545,-33.16359 l 4.90828,-28.25797 -19.67156,-19.30161 c -10.81934,-10.61591 -21.70431,-21.18347 -24.18879,-23.48346 -2.48453,-2.3 -4.31706,-4.34488 -4.07238,-4.54422 0.24505,-0.19944 15.09364,-2.4783 32.99768,-5.0644 17.90401,-2.58606 32.8374,-4.99873 33.18531,-5.36145 0.34788,-0.36256 7.29703,-14.0344 15.44248,-30.38155 l 14.8099,-29.72202 14.69857,29.91026 c 8.08415,16.4507 15.05804,30.13251 15.49748,30.40412 0.43941,0.27173 15.39405,2.60172 33.23251,5.17816 17.83845,2.5764 32.55755,4.76898 32.70899,4.87234 0.28255,0.19288 -30.68007,30.74945 -41.74261,41.19509 l -6.17359,5.82935 5.55603,32.38148 c 3.05581,17.80981 5.4267,32.72399 5.26861,33.14264 -0.15809,0.41865 -13.3189,-6.10776 -29.24628,-14.50299 -15.92738,-8.39535 -29.32865,-15.27284 -29.78054,-15.28335 -0.78535,-0.0193 -41.73453,21.1699 -53.83958,27.85807 l -5.79316,3.20072 z m 51.24938,-31.51474 7.7316,-4.00431 24.33366,12.80366 c 13.38353,7.04199 24.4223,12.7083 24.53057,12.59184 0.10823,-0.11673 -1.90041,-12.54546 -4.46382,-27.61989 -3.4733,-20.42514 -4.38752,-27.57691 -3.58845,-28.07089 1.49602,-0.9248 38.44356,-37.45153 38.11149,-37.67746 -0.14881,-0.10127 -8.00769,-1.28887 -17.4646,-2.6394 -9.45687,-1.35057 -21.60118,-3.11325 -26.98726,-3.91715 l -9.79295,-1.46158 -12.38702,-24.76132 -12.38694,-24.76136 -12.20875,24.51789 c -6.7148,13.48479 -12.41238,24.64926 -12.66122,24.8099 -0.24893,0.1608 -12.46588,2.02518 -27.14899,4.14347 -14.68303,2.11832 -26.84339,3.9672 -27.02301,4.10871 -0.17973,0.14147 8.5464,8.95968 19.39102,19.59596 l 19.71756,19.33864 -4.31813,25.28139 c -2.37502,13.90476 -4.5426,26.25754 -4.81684,27.45059 -0.44937,1.95471 1.19252,1.2844 16.60091,-6.77757 9.40476,-4.92073 20.57882,-10.74876 24.83117,-12.95112 z m -26.91811,-14.6804 3.61168,-21.01467 -15.43588,-15.22734 c -8.48977,-8.37509 -15.21134,-15.22738 -14.9369,-15.22738 0.91391,0 38.67713,-5.47872 40.59222,-5.88918 1.43259,-0.30729 4.10435,-4.9871 11.14438,-19.52128 5.093,-10.51456 9.39819,-18.97411 9.5671,-18.79886 0.16891,0.1751 4.46378,8.66681 9.54415,18.87033 5.08048,10.20345 9.39073,18.71661 9.57839,18.91818 0.26554,0.28487 40.09592,6.36708 41.98098,6.4106 0.24312,0.008 -6.4399,6.9015 -14.85168,15.32425 l -15.29413,15.31404 3.31336,19.41162 c 1.82232,10.6764 3.31331,20.10613 3.31331,20.95491 0,1.23183 -1.91733,0.52475 -9.50209,-3.50438 -5.2262,-2.77619 -13.67709,-7.26487 -18.7798,-9.97481 l -9.27767,-4.92727 -18.05797,9.55207 c -9.93187,5.25365 -18.52222,9.73022 -19.08956,9.94799 -0.66243,0.25395 0.2609,-7.12467 2.58011,-20.61882 z"
         id="path326"
         inkscape:label="star"
         inkscape:export-filename="./no_star.png"
         inkscape:export-xdpi="96"
         inkscape:export-ydpi="96" /></g><path
       id="path905"
       style="display:none;fill:none;fill-rule:evenodd;stroke:#ffc800;stroke-width:4.8;paint-order:markers fill stroke"
       d="m 191.12188,174.21053 c 0,27.19573 -14.50875,52.32562 -38.06094,65.92349 -23.55219,13.59786 -52.56969,13.59786 -76.121881,-1e-5 -23.55219,-13.59786 -38.060938,-38.72775 -38.060938,-65.92348"
       sodipodi:nodetypes="cssc" /></g></svg>
