<?xml version="1.0" encoding="UTF-8" standalone="no"?>
<!-- Created with Inkscape (http://www.inkscape.org/) -->

<svg
   version="1.1"
   id="svg2"
   width="230"
   height="350"
   viewBox="0 0 230 350"
   sodipodi:docname="embeds.svg"
   xml:space="preserve"
   inkscape:version="1.2.2 (b0a8486541, 2022-12-01)"
   inkscape:export-filename="emotes/star.png"
   inkscape:export-xdpi="96"
   inkscape:export-ydpi="96"
   xmlns:inkscape="http://www.inkscape.org/namespaces/inkscape"
   xmlns:sodipodi="http://sodipodi.sourceforge.net/DTD/sodipodi-0.dtd"
   xmlns="http://www.w3.org/2000/svg"
   xmlns:svg="http://www.w3.org/2000/svg"><defs
     id="defs6" /><sodipodi:namedview
     id="namedview4"
     pagecolor="#2b2d42"
     bordercolor="#ffffff"
     borderopacity="1"
     inkscape:showpageshadow="0"
     inkscape:pageopacity="0"
     inkscape:pagecheckerboard="1"
     inkscape:deskcolor="#505050"
     showgrid="false"
     inkscape:zoom="1.317067"
     inkscape:cx="376.59437"
     inkscape:cy="188.29718"
     inkscape:current-layer="g2091"
     showborder="false" /><g
     inkscape:groupmode="layer"
     inkscape:label="Layer 1"
     id="g8"><g
       id="g1800"
       inkscape:label="colors"
       transform="matrix(3.7795275,0,0,3.7795275,123.15188,-70.616143)"><rect
         style="opacity:1;fill:#2b2d42;fill-opacity:1;stroke:none;stroke-width:0.0613833;stroke-linecap:round;stroke-linejoin:round"
         id="rect1653"
         width="57.955578"
         height="39.289127"
         x="-118.41911"
         y="-57.586948" /><rect
         style="opacity:1;fill:#6b3ebd;fill-opacity:1;stroke:none;stroke-width:0.0613833;stroke-linecap:round;stroke-linejoin:round"
         id="rect1793"
         width="57.955578"
         height="39.289127"
         x="-118.41911"
         y="4.6260295" /><rect
         style="opacity:1;fill:#feb500;fill-opacity:1;stroke:none;stroke-width:0.0613833;stroke-linecap:round;stroke-linejoin:round"
         id="rect1795"
         width="57.955578"
         height="39.289127"
         x="-118.41911"
         y="66.4207" /><rect
         style="opacity:1;fill:#fed33c;fill-opacity:1;stroke:none;stroke-width:0.0613833;stroke-linecap:round;stroke-linejoin:round"
         id="rect2229"
         width="57.955578"
         height="39.289127"
         x="-118.41911"
         y="122.19254" /><rect
         style="opacity:1;fill:#00a86b;fill-opacity:1;stroke:none;stroke-width:0.0613833;stroke-linecap:round;stroke-linejoin:round"
         id="rect478"
         width="57.955578"
         height="39.289127"
         x="-37.266357"
         y="-57.586948" /><rect
         style="opacity:1;fill:#a51727;fill-opacity:1;stroke:none;stroke-width:0.0613833;stroke-linecap:round;stroke-linejoin:round"
         id="rect480"
         width="57.955578"
         height="39.289127"
         x="45.599529"
         y="-57.586948" /></g><g
       id="g374"
       transform="matrix(0.6654058,0,0,0.6654058,18.573585,34.537364)"
       style="display:none"
       inkscape:label="rating"><path
         style="fill:#feb500;fill-opacity:1;stroke:none;stroke-width:0.234127"
         d="m 9.6994124,233.64974 c 0.09208,-0.69804 0.7388556,-4.55897 1.4372716,-8.57987 l 1.26984,-7.31072 -5.0893016,-4.99359 c -2.799115,-2.74648 -5.615202,-5.48045 -6.257976,-6.07549 -0.64277304,-0.59504 -1.11688004,-1.12408 -1.05357604,-1.17565 0.06336,-0.0516 3.90493404,-0.64117 8.53694604,-1.31023 4.6320106,-0.66905 8.4954796,-1.29324 8.5854946,-1.38708 0.09001,-0.0938 1.887843,-3.63089 3.995182,-7.86012 l 3.831513,-7.68949 3.80272,7.73819 c 2.091488,4.25602 3.895727,7.79569 4.009411,7.86596 0.11368,0.0703 3.982649,0.6731 8.597702,1.33966 4.615049,0.66655 8.423079,1.2338 8.462265,1.26054 0.0731,0.0499 -7.937354,7.9553 -10.799389,10.65773 l -1.59719,1.50813 1.437426,8.37753 c 0.790583,4.60764 1.403959,8.46614 1.363059,8.57445 -0.0409,0.10831 -3.445783,-1.58016 -7.566415,-3.75212 -4.120628,-2.17199 -7.587718,-3.95129 -7.704627,-3.95401 -0.203179,-0.005 -10.797286,5.47694 -13.929032,7.20726 l -1.4987626,0.82807 z m 13.2589086,-8.15329 2.000264,-1.03597 6.295454,3.31248 c 3.462502,1.82186 6.318384,3.28781 6.34639,3.25768 0.02802,-0.0302 -0.491661,-3.24568 -1.154849,-7.14564 -0.898587,-5.28426 -1.135108,-7.13452 -0.928383,-7.26232 0.387039,-0.23926 9.945874,-9.68922 9.859967,-9.74767 -0.03851,-0.0262 -2.071704,-0.33345 -4.518332,-0.68285 -2.446624,-0.34941 -5.588519,-0.80544 -6.981973,-1.01342 l -2.533565,-0.37813 -3.20469,-6.40609 -3.204674,-6.4061 -3.158575,6.34311 c -1.737204,3.4887 -3.211246,6.3771 -3.275629,6.41866 -0.06442,0.0416 -3.225091,0.52394 -7.023802,1.07197 -3.7987016,0.54804 -6.9447556,1.02637 -6.9912196,1.06298 -0.04646,0.0366 2.211061,2.31799 5.016714,5.06974 l 5.1012046,5.00317 -1.117162,6.54064 c -0.614449,3.59735 -1.175229,6.79318 -1.24618,7.10184 -0.116257,0.50571 0.308517,0.33229 4.294877,-1.75345 2.433143,-1.27306 5.324023,-2.78085 6.424163,-3.35063 z m -6.964085,-3.79802 0.934394,-5.43678 -3.993472,-3.93952 c -2.196418,-2.16675 -3.9353826,-3.93953 -3.8643796,-3.93953 0.236443,0 10.0063046,-1.41742 10.5017596,-1.52361 0.37063,-0.0795 1.06185,-1.29023 2.883197,-5.05042 1.317636,-2.72026 2.431444,-4.90886 2.475142,-4.86352 0.04371,0.0453 1.154841,2.24222 2.469205,4.88201 1.314384,2.63977 2.429505,4.84224 2.478054,4.89439 0.06867,0.0737 10.373363,1.64725 10.861054,1.65851 0.06291,0.002 -1.666088,1.78551 -3.842327,3.96459 l -3.956807,3.96195 0.857213,5.02205 c 0.471465,2.76213 0.857202,5.20173 0.857202,5.42132 0,0.31869 -0.496039,0.13576 -2.458323,-0.90663 -1.352084,-0.71824 -3.53845,-1.87952 -4.858585,-2.58062 l -2.400262,-1.27475 -4.671843,2.47125 c -2.569511,1.35919 -4.791944,2.51734 -4.93873,2.57368 -0.171376,0.0657 0.06752,-1.84325 0.667508,-5.33437 z"
         id="path300"
         inkscape:label="star"
         inkscape:export-filename="./path300.png"
         inkscape:export-xdpi="96"
         inkscape:export-ydpi="96" /><path
         style="fill:#feb500;fill-opacity:1;stroke:none;stroke-width:0.234127"
         d="m 69.699412,233.64974 c 0.09208,-0.69804 0.738856,-4.55897 1.437272,-8.57987 l 1.26984,-7.31072 -5.089302,-4.99359 c -2.799115,-2.74648 -5.615202,-5.48045 -6.257976,-6.07549 -0.642773,-0.59504 -1.11688,-1.12408 -1.053576,-1.17565 0.06336,-0.0516 3.904934,-0.64117 8.536946,-1.31023 4.632011,-0.66905 8.49548,-1.29324 8.585495,-1.38708 0.09001,-0.0938 1.887843,-3.63089 3.995182,-7.86012 l 3.831513,-7.68949 3.80272,7.73819 c 2.091488,4.25602 3.895727,7.79569 4.009411,7.86596 0.11368,0.0703 3.982649,0.6731 8.597703,1.33966 4.61505,0.66655 8.42308,1.2338 8.46226,1.26054 0.0731,0.0499 -7.93735,7.9553 -10.799385,10.65773 l -1.59719,1.50813 1.437426,8.37753 c 0.790583,4.60764 1.403959,8.46614 1.363059,8.57445 -0.0409,0.10831 -3.445783,-1.58016 -7.566415,-3.75212 -4.120628,-2.17199 -7.587718,-3.95129 -7.704627,-3.95401 -0.203179,-0.005 -10.797286,5.47694 -13.929032,7.20726 l -1.498763,0.82807 z m 13.258909,-8.15329 2.000264,-1.03597 6.295454,3.31248 c 3.462502,1.82186 6.318384,3.28781 6.34639,3.25768 0.02802,-0.0302 -0.491661,-3.24568 -1.154849,-7.14564 -0.898587,-5.28426 -1.135108,-7.13452 -0.928383,-7.26232 0.387039,-0.23926 9.945873,-9.68922 9.859963,-9.74767 -0.0385,-0.0262 -2.0717,-0.33345 -4.51833,-0.68285 -2.446622,-0.34941 -5.588517,-0.80544 -6.981971,-1.01342 l -2.533565,-0.37813 -3.20469,-6.40609 -3.204674,-6.4061 -3.158575,6.34311 c -1.737204,3.4887 -3.211246,6.3771 -3.275629,6.41866 -0.06442,0.0416 -3.225091,0.52394 -7.023802,1.07197 -3.798702,0.54804 -6.944756,1.02637 -6.99122,1.06298 -0.04646,0.0366 2.211061,2.31799 5.016714,5.06974 l 5.101205,5.00317 -1.117162,6.54064 c -0.614449,3.59735 -1.175229,6.79318 -1.24618,7.10184 -0.116257,0.50571 0.308517,0.33229 4.294877,-1.75345 2.433143,-1.27306 5.324023,-2.78085 6.424163,-3.35063 z m -6.964085,-3.79802 0.934394,-5.43678 -3.993472,-3.93952 c -2.196418,-2.16675 -3.935383,-3.93953 -3.86438,-3.93953 0.236443,0 10.006305,-1.41742 10.50176,-1.52361 0.37063,-0.0795 1.06185,-1.29023 2.883197,-5.05042 1.317636,-2.72026 2.431444,-4.90886 2.475142,-4.86352 0.04371,0.0453 1.154841,2.24222 2.469205,4.88201 1.314384,2.63977 2.429505,4.84224 2.478054,4.89439 0.06867,0.0737 10.373364,1.64725 10.861054,1.65851 0.0629,0.002 -1.666088,1.78551 -3.842327,3.96459 l -3.956807,3.96195 0.857213,5.02205 c 0.471465,2.76213 0.857202,5.20173 0.857202,5.42132 0,0.31869 -0.496039,0.13576 -2.458323,-0.90663 -1.352084,-0.71824 -3.53845,-1.87952 -4.858585,-2.58062 l -2.400262,-1.27475 -4.671843,2.47125 c -2.569511,1.35919 -4.791944,2.51734 -4.93873,2.57368 -0.171376,0.0657 0.06752,-1.84325 0.667508,-5.33437 z"
         id="path361"
         inkscape:label="star" /><path
         style="fill:#feb500;fill-opacity:1;stroke:none;stroke-width:0.234127"
         d="m 129.69941,233.64974 c 0.0921,-0.69804 0.73886,-4.55897 1.43727,-8.57987 l 1.26984,-7.31072 -5.0893,-4.99359 c -2.79911,-2.74648 -5.6152,-5.48045 -6.25797,-6.07549 -0.64278,-0.59504 -1.11688,-1.12408 -1.05358,-1.17565 0.0634,-0.0516 3.90493,-0.64117 8.53695,-1.31023 4.63201,-0.66905 8.49548,-1.29324 8.58549,-1.38708 0.09,-0.0938 1.88784,-3.63089 3.99518,-7.86012 l 3.83152,-7.68949 3.80272,7.73819 c 2.09148,4.25602 3.89572,7.79569 4.00941,7.86596 0.11368,0.0703 3.98265,0.6731 8.5977,1.33966 4.61505,0.66655 8.42308,1.2338 8.46226,1.26054 0.0731,0.0499 -7.93735,7.9553 -10.79938,10.65773 l -1.59719,1.50813 1.43742,8.37753 c 0.79058,4.60764 1.40396,8.46614 1.36306,8.57445 -0.0409,0.10831 -3.44578,-1.58016 -7.56641,-3.75212 -4.12063,-2.17199 -7.58772,-3.95129 -7.70463,-3.95401 -0.20318,-0.005 -10.79729,5.47694 -13.92903,7.20726 l -1.49877,0.82807 z m 13.25891,-8.15329 2.00027,-1.03597 6.29545,3.31248 c 3.4625,1.82186 6.31838,3.28781 6.34639,3.25768 0.028,-0.0302 -0.49166,-3.24568 -1.15485,-7.14564 -0.89859,-5.28426 -1.13511,-7.13452 -0.92838,-7.26232 0.38704,-0.23926 9.94587,-9.68922 9.85996,-9.74767 -0.0385,-0.0262 -2.0717,-0.33345 -4.51833,-0.68285 -2.44662,-0.34941 -5.58852,-0.80544 -6.98197,-1.01342 l -2.53357,-0.37813 -3.20469,-6.40609 -3.20467,-6.4061 -3.15857,6.34311 c -1.73721,3.4887 -3.21125,6.3771 -3.27563,6.41866 -0.0644,0.0416 -3.22509,0.52394 -7.02381,1.07197 -3.7987,0.54804 -6.94475,1.02637 -6.99122,1.06298 -0.0465,0.0366 2.21107,2.31799 5.01672,5.06974 l 5.1012,5.00317 -1.11716,6.54064 c -0.61445,3.59735 -1.17523,6.79318 -1.24618,7.10184 -0.11626,0.50571 0.30852,0.33229 4.29488,-1.75345 2.43314,-1.27306 5.32402,-2.78085 6.42416,-3.35063 z m -6.96408,-3.79802 0.93439,-5.43678 -3.99347,-3.93952 c -2.19642,-2.16675 -3.93538,-3.93953 -3.86438,-3.93953 0.23644,0 10.0063,-1.41742 10.50176,-1.52361 0.37063,-0.0795 1.06185,-1.29023 2.8832,-5.05042 1.31763,-2.72026 2.43144,-4.90886 2.47514,-4.86352 0.0437,0.0453 1.15484,2.24222 2.4692,4.88201 1.31439,2.63977 2.42951,4.84224 2.47806,4.89439 0.0687,0.0737 10.37336,1.64725 10.86105,1.65851 0.0629,0.002 -1.66609,1.78551 -3.84233,3.96459 l -3.9568,3.96195 0.85721,5.02205 c 0.47146,2.76213 0.8572,5.20173 0.8572,5.42132 0,0.31869 -0.49604,0.13576 -2.45832,-0.90663 -1.35209,-0.71824 -3.53845,-1.87952 -4.85859,-2.58062 l -2.40026,-1.27475 -4.67184,2.47125 c -2.56951,1.35919 -4.79195,2.51734 -4.93873,2.57368 -0.17138,0.0657 0.0675,-1.84325 0.66751,-5.33437 z"
         id="path363"
         inkscape:label="star" /><path
         style="fill:#feb500;fill-opacity:1;stroke:none;stroke-width:0.234127"
         d="m 189.69941,233.64974 c 0.0921,-0.69804 0.73886,-4.55897 1.43727,-8.57987 l 1.26984,-7.31072 -5.0893,-4.99359 c -2.79911,-2.74648 -5.6152,-5.48045 -6.25797,-6.07549 -0.64278,-0.59504 -1.11688,-1.12408 -1.05358,-1.17565 0.0634,-0.0516 3.90493,-0.64117 8.53695,-1.31023 4.63201,-0.66905 8.49548,-1.29324 8.58549,-1.38708 0.09,-0.0938 1.88784,-3.63089 3.99518,-7.86012 l 3.83152,-7.68949 3.80272,7.73819 c 2.09148,4.25602 3.89572,7.79569 4.00941,7.86596 0.11368,0.0703 3.98265,0.6731 8.5977,1.33966 4.61505,0.66655 8.42308,1.2338 8.46226,1.26054 0.0731,0.0499 -7.93735,7.9553 -10.79938,10.65773 l -1.59719,1.50813 1.43742,8.37753 c 0.79058,4.60764 1.40396,8.46614 1.36306,8.57445 -0.0409,0.10831 -3.44578,-1.58016 -7.56641,-3.75212 -4.12063,-2.17199 -7.58772,-3.95129 -7.70463,-3.95401 -0.20318,-0.005 -10.79729,5.47694 -13.92903,7.20726 l -1.49877,0.82807 z m 13.25891,-8.15329 2.00027,-1.03597 6.29545,3.31248 c 3.4625,1.82186 6.31838,3.28781 6.34639,3.25768 0.028,-0.0302 -0.49166,-3.24568 -1.15485,-7.14564 -0.89859,-5.28426 -1.13511,-7.13452 -0.92838,-7.26232 0.38704,-0.23926 9.94587,-9.68922 9.85996,-9.74767 -0.0385,-0.0262 -2.0717,-0.33345 -4.51833,-0.68285 -2.44662,-0.34941 -5.58852,-0.80544 -6.98197,-1.01342 l -2.53357,-0.37813 -3.20469,-6.40609 -3.20467,-6.4061 -3.15857,6.34311 c -1.73721,3.4887 -3.21125,6.3771 -3.27563,6.41866 -0.0644,0.0416 -3.22509,0.52394 -7.02381,1.07197 -3.7987,0.54804 -6.94475,1.02637 -6.99122,1.06298 -0.0465,0.0366 2.21107,2.31799 5.01672,5.06974 l 5.1012,5.00317 -1.11716,6.54064 c -0.61445,3.59735 -1.17523,6.79318 -1.24618,7.10184 -0.11626,0.50571 0.30852,0.33229 4.29488,-1.75345 2.43314,-1.27306 5.32402,-2.78085 6.42416,-3.35063 z m -6.96408,-3.79802 0.93439,-5.43678 -3.99347,-3.93952 c -2.19642,-2.16675 -3.93538,-3.93953 -3.86438,-3.93953 0.23644,0 10.0063,-1.41742 10.50176,-1.52361 0.37063,-0.0795 1.06185,-1.29023 2.8832,-5.05042 1.31763,-2.72026 2.43144,-4.90886 2.47514,-4.86352 0.0437,0.0453 1.15484,2.24222 2.4692,4.88201 1.31439,2.63977 2.42951,4.84224 2.47806,4.89439 0.0687,0.0737 10.37336,1.64725 10.86105,1.65851 0.0629,0.002 -1.66609,1.78551 -3.84233,3.96459 l -3.9568,3.96195 0.85721,5.02205 c 0.47146,2.76213 0.8572,5.20173 0.8572,5.42132 0,0.31869 -0.49604,0.13576 -2.45832,-0.90663 -1.35209,-0.71824 -3.53845,-1.87952 -4.85859,-2.58062 l -2.40026,-1.27475 -4.67184,2.47125 c -2.56951,1.35919 -4.79195,2.51734 -4.93873,2.57368 -0.17138,0.0657 0.0675,-1.84325 0.66751,-5.33437 z"
         id="path365"
         inkscape:label="star" /><path
         style="fill:#feb500;fill-opacity:1;stroke:none;stroke-width:0.234127"
         d="m 249.69941,233.64974 c 0.0921,-0.69804 0.73886,-4.55897 1.43727,-8.57987 l 1.26984,-7.31072 -5.0893,-4.99359 c -2.79911,-2.74648 -5.6152,-5.48045 -6.25797,-6.07549 -0.64278,-0.59504 -1.11688,-1.12408 -1.05358,-1.17565 0.0634,-0.0516 3.90493,-0.64117 8.53695,-1.31023 4.63201,-0.66905 8.49548,-1.29324 8.58549,-1.38708 0.09,-0.0938 1.88784,-3.63089 3.99518,-7.86012 l 3.83152,-7.68949 3.80272,7.73819 c 2.09148,4.25602 3.89572,7.79569 4.00941,7.86596 0.11368,0.0703 3.98265,0.6731 8.5977,1.33966 4.61505,0.66655 8.42308,1.2338 8.46226,1.26054 0.0731,0.0499 -7.93735,7.9553 -10.79938,10.65773 l -1.59719,1.50813 1.43742,8.37753 c 0.79058,4.60764 1.40396,8.46614 1.36306,8.57445 -0.0409,0.10831 -3.44578,-1.58016 -7.56641,-3.75212 -4.12063,-2.17199 -7.58772,-3.95129 -7.70463,-3.95401 -0.20318,-0.005 -10.79729,5.47694 -13.92903,7.20726 l -1.49877,0.82807 z m 13.25891,-8.15329 2.00027,-1.03597 6.29545,3.31248 c 3.4625,1.82186 6.31838,3.28781 6.34639,3.25768 0.028,-0.0302 -0.49166,-3.24568 -1.15485,-7.14564 -0.89859,-5.28426 -1.13511,-7.13452 -0.92838,-7.26232 0.38704,-0.23926 9.94587,-9.68922 9.85996,-9.74767 -0.0385,-0.0262 -2.0717,-0.33345 -4.51833,-0.68285 -2.44662,-0.34941 -5.58852,-0.80544 -6.98197,-1.01342 l -2.53357,-0.37813 -3.20469,-6.40609 -3.20467,-6.4061 -3.15857,6.34311 c -1.73721,3.4887 -3.21125,6.3771 -3.27563,6.41866 -0.0644,0.0416 -3.22509,0.52394 -7.02381,1.07197 -3.7987,0.54804 -6.94475,1.02637 -6.99122,1.06298 -0.0465,0.0366 2.21107,2.31799 5.01672,5.06974 l 5.1012,5.00317 -1.11716,6.54064 c -0.61445,3.59735 -1.17523,6.79318 -1.24618,7.10184 -0.11626,0.50571 0.30852,0.33229 4.29488,-1.75345 2.43314,-1.27306 5.32402,-2.78085 6.42416,-3.35063 z m -6.96408,-3.79802 0.93439,-5.43678 -3.99347,-3.93952 c -2.19642,-2.16675 -3.93538,-3.93953 -3.86438,-3.93953 0.23644,0 10.0063,-1.41742 10.50176,-1.52361 0.37063,-0.0795 1.06185,-1.29023 2.8832,-5.05042 1.31763,-2.72026 2.43144,-4.90886 2.47514,-4.86352 0.0437,0.0453 1.15484,2.24222 2.4692,4.88201 1.31439,2.63977 2.42951,4.84224 2.47806,4.89439 0.0687,0.0737 10.37336,1.64725 10.86105,1.65851 0.0629,0.002 -1.66609,1.78551 -3.84233,3.96459 l -3.9568,3.96195 0.85721,5.02205 c 0.47146,2.76213 0.8572,5.20173 0.8572,5.42132 0,0.31869 -0.49604,0.13576 -2.45832,-0.90663 -1.35209,-0.71824 -3.53845,-1.87952 -4.85859,-2.58062 l -2.40026,-1.27475 -4.67184,2.47125 c -2.56951,1.35919 -4.79195,2.51734 -4.93873,2.57368 -0.17138,0.0657 0.0675,-1.84325 0.66751,-5.33437 z"
         id="path367"
         inkscape:label="star"
         inkscape:export-filename="./star.png"
         inkscape:export-xdpi="96"
         inkscape:export-ydpi="96" /></g><g
       id="g1643"
       inkscape:label="stars"
       transform="translate(0,-236.87585)"><path
         style="display:inline;fill:#feb500;fill-opacity:1;stroke:none;stroke-width:0.601441"
         d="m 342.02142,283.73112 c 0.23659,-1.79317 1.89803,-11.71139 3.69216,-22.04055 l 3.26204,-18.78028 -13.07374,-12.82787 c -7.19054,-7.05534 -14.42471,-14.07855 -16.07589,-15.60713 -1.65122,-1.52858 -2.86912,-2.88761 -2.70651,-3.02009 0.16286,-0.13255 10.03125,-1.64709 21.93029,-3.36581 11.89903,-1.7187 21.82377,-3.32216 22.05499,-3.56322 0.23121,-0.24096 4.84961,-9.32728 10.26309,-20.19161 l 9.84268,-19.75329 9.76868,19.87839 c 5.37273,10.93315 10.00759,20.0261 10.29964,20.20661 0.29204,0.18059 10.2309,1.7291 22.08636,3.44141 11.85545,1.71228 21.63778,3.16947 21.73843,3.23817 0.18778,0.12818 -20.39001,20.43611 -27.74218,27.37829 l -4.10297,3.87419 3.69254,21.52077 c 2.03089,11.83642 3.60658,21.7484 3.50152,22.02663 -0.10507,0.27824 -8.85176,-4.05922 -19.43711,-9.6387 -10.58535,-5.57956 -19.49185,-10.15035 -19.79218,-10.15733 -0.52194,-0.0128 -27.73681,14.06953 -35.78184,18.5145 l -3.85013,2.1272 z m 34.06038,-20.94473 5.13843,-2.66126 16.17218,8.50932 c 8.89471,4.68011 16.23108,8.44595 16.30304,8.36855 0.0719,-0.0776 -1.26301,-8.33773 -2.96666,-18.3562 -2.30836,-13.57458 -2.91595,-18.32765 -2.38489,-18.65595 0.99426,-0.61463 25.54963,-24.89033 25.32894,-25.04047 -0.0989,-0.0673 -5.32192,-0.85659 -11.60699,-1.75415 -6.28504,-0.8976 -14.35617,-2.06908 -17.93576,-2.60334 l -6.50841,-0.97138 -8.23242,-16.45639 -8.23237,-16.45643 -8.11395,16.29462 c -4.46267,8.962 -8.24929,16.38192 -8.41467,16.48868 -0.16543,0.10687 -8.28483,1.34594 -18.04324,2.75376 -9.75835,1.40784 -17.84014,2.6366 -17.95952,2.73065 -0.11945,0.094 5.67995,5.95461 12.88729,13.02349 l 13.10431,12.85248 -2.86983,16.80204 c -1.57844,9.24112 -3.01902,17.45079 -3.20128,18.24369 -0.29865,1.29911 0.79255,0.85362 11.03298,-4.50438 6.25042,-3.27032 13.67671,-7.14363 16.50282,-8.60733 z m -17.8898,-9.7566 2.40033,-13.96638 -10.2587,-10.1201 c -5.64231,-5.5661 -10.10947,-10.12013 -9.92708,-10.12013 0.60738,0 25.70486,-3.64117 26.97763,-3.91396 0.9521,-0.20423 2.72776,-3.31443 7.40656,-12.97386 3.38482,-6.98799 6.24605,-12.61021 6.35831,-12.49374 0.11226,0.11637 2.96663,5.75997 6.34305,12.54123 3.37649,6.78123 6.24109,12.43909 6.36581,12.57305 0.17648,0.18932 26.64779,4.23156 27.9006,4.26049 0.16158,0.005 -4.27996,4.58674 -9.87044,10.18451 l -10.16449,10.17773 2.20206,12.90098 c 1.21112,7.09554 2.20202,13.36256 2.20202,13.92665 0,0.81868 -1.27425,0.34876 -6.31509,-2.32901 -3.47334,-1.84506 -9.08981,-4.82824 -12.48108,-6.62926 l -6.16595,-3.27468 -12.00134,6.34832 c -6.60073,3.49158 -12.30989,6.46671 -12.68694,6.61144 -0.44025,0.16878 0.17339,-4.73506 1.71474,-13.70328 z"
         id="path367-3"
         inkscape:label="star"
         inkscape:export-filename="emotes/star.png"
         inkscape:export-xdpi="96"
         inkscape:export-ydpi="96" /><path
         style="display:inline;fill:#b1b0ad;fill-opacity:1;stroke:none;stroke-width:0.601441"
         d="m 520.97092,283.73112 c 0.23659,-1.79317 1.89803,-11.71139 3.69216,-22.04055 l 3.26204,-18.78028 -13.07374,-12.82787 c -7.19054,-7.05534 -14.4247,-14.07855 -16.07589,-15.60713 -1.65122,-1.52858 -2.86912,-2.88761 -2.70651,-3.02009 0.16287,-0.13255 10.03125,-1.64709 21.93029,-3.36581 11.89903,-1.7187 21.82378,-3.32216 22.055,-3.56322 0.2312,-0.24096 4.84961,-9.32728 10.26308,-20.19161 l 9.84268,-19.75329 9.76868,19.87839 c 5.37273,10.93315 10.00759,20.0261 10.29965,20.20661 0.29203,0.18059 10.2309,1.7291 22.08635,3.44141 11.85546,1.71228 21.63779,3.16947 21.73843,3.23817 0.18778,0.12818 -20.39,20.43611 -27.74218,27.37829 l -4.10297,3.87419 3.69254,21.52077 c 2.03089,11.83642 3.60659,21.7484 3.50152,22.02663 -0.10507,0.27824 -8.85175,-4.05922 -19.4371,-9.6387 -10.58536,-5.57956 -19.49185,-10.15035 -19.79219,-10.15733 -0.52194,-0.0128 -27.7368,14.06953 -35.78183,18.5145 l -3.85014,2.1272 z m 34.06039,-20.94473 5.13843,-2.66126 16.17217,8.50932 c 8.89471,4.68011 16.23109,8.44595 16.30304,8.36855 0.0719,-0.0776 -1.26301,-8.33773 -2.96665,-18.3562 -2.30836,-13.57458 -2.91595,-18.32765 -2.38489,-18.65595 0.99425,-0.61463 25.54962,-24.89033 25.32893,-25.04047 -0.0989,-0.0673 -5.32192,-0.85659 -11.60699,-1.75415 -6.28504,-0.8976 -14.35617,-2.06908 -17.93576,-2.60334 l -6.50841,-0.97138 -8.23242,-16.45639 -8.23237,-16.45643 -8.11395,16.29462 c -4.46266,8.962 -8.24928,16.38192 -8.41466,16.48868 -0.16544,0.10687 -8.28484,1.34594 -18.04325,2.75376 -9.75835,1.40784 -17.84014,2.6366 -17.95952,2.73065 -0.11945,0.094 5.67995,5.95461 12.88729,13.02349 l 13.10431,12.85248 -2.86983,16.80204 c -1.57844,9.24112 -3.01901,17.45079 -3.20128,18.24369 -0.29864,1.29911 0.79256,0.85362 11.03298,-4.50438 6.25042,-3.27032 13.67671,-7.14363 16.50283,-8.60733 z m -17.8898,-9.7566 2.40032,-13.96638 -10.2587,-10.1201 c -5.64231,-5.5661 -10.10947,-10.12013 -9.92708,-10.12013 0.60739,0 25.70486,-3.64117 26.97763,-3.91396 0.9521,-0.20423 2.72776,-3.31443 7.40657,-12.97386 3.38481,-6.98799 6.24604,-12.61021 6.3583,-12.49374 0.11226,0.11637 2.96663,5.75997 6.34306,12.54123 3.37648,6.78123 6.24108,12.43909 6.3658,12.57305 0.17648,0.18932 26.64779,4.23156 27.90061,4.26049 0.16157,0.005 -4.27997,4.58674 -9.87045,10.18451 l -10.16449,10.17773 2.20206,12.90098 c 1.21112,7.09554 2.20203,13.36256 2.20203,13.92665 0,0.81868 -1.27426,0.34876 -6.3151,-2.32901 -3.47333,-1.84506 -9.08981,-4.82824 -12.48107,-6.62926 l -6.16595,-3.27468 -12.00135,6.34832 c -6.60073,3.49158 -12.30989,6.46671 -12.68694,6.61144 -0.44025,0.16878 0.17339,-4.73506 1.71475,-13.70328 z"
         id="path326"
         inkscape:label="no-star"
         inkscape:export-filename="emotes/no_star.png"
         inkscape:export-xdpi="96"
         inkscape:export-ydpi="96" /></g><g
       id="g2163"
       inkscape:label="trading"><g
         id="g2091"
         transform="matrix(0.2346067,0,0,0.2346067,231.98305,112.10546)"
         inkscape:label="add"
         inkscape:export-filename="emotes/add.png"
         inkscape:export-xdpi="96"
         inkscape:export-ydpi="96"><path
           id="path1465"
           style="fill:#009439;fill-opacity:1;stroke:none;stroke-width:1.06667"
           d="M 614.72295 184.80068 L 488.0565 185.09206 C 368.6516 185.3672 361.14966 185.49355 357.1276 187.30654 C 351.73162 189.73884 347.43169 193.79334 344.4901 199.24473 C 342.21489 203.4612 342.19237 204.16912 342.19237 259.51016 C 342.19237 312.10365 342.31459 315.74486 344.18207 319.2511 C 348.36389 327.10254 354.04477 331.4439 362.27252 333.07077 C 364.72102 333.55492 422.5206 333.99716 490.72053 334.06146 L 614.72295 334.17801 L 614.72295 333.14569 L 742.98781 332.86264 L 871.261 332.57959 L 875.78153 329.64083 C 881.59761 325.86005 885.34016 320.13258 886.70407 312.94067 C 888.14262 305.35525 888.14262 213.67339 886.70407 206.08797 C 885.34016 198.89605 881.59761 193.16859 875.78153 189.38781 L 871.261 186.44905 L 742.98781 186.166 L 614.72295 185.88294 L 614.72295 184.80068 z " /><path
           id="path1636"
           style="fill:#00c17b;fill-opacity:1;stroke:none;stroke-width:1.06667"
           d="M 614.96437 -13.311803 C 562.37088 -13.311803 558.738 -13.189581 555.23176 -11.322103 C 547.38032 -7.1402773 543.03896 -1.4510704 541.41209 6.7766713 C 540.92794 9.2251789 540.47737 67.024758 540.41307 135.22469 L 540.29652 259.2271 L 541.32884 259.2271 L 541.61189 387.49197 L 541.89494 515.75683 L 544.8337 520.27736 C 548.61448 526.09344 554.34195 529.84432 561.53386 531.20823 C 569.11928 532.64677 660.80946 532.64677 668.39489 531.20823 C 675.58681 529.84432 681.30594 526.09344 685.08672 520.27736 L 688.02548 515.75683 L 688.30853 387.49197 L 688.59991 259.2271 L 689.68218 259.2271 L 689.3908 132.56066 C 689.11566 13.155756 688.98931 5.6454884 687.17632 1.6234324 C 684.74401 -3.7725522 680.68119 -8.0641521 675.2298 -11.005749 C 671.01333 -13.280957 670.30541 -13.311803 614.96437 -13.311803 z " /></g><g
         id="g324"
         transform="matrix(0.2346067,0,0,0.2346067,424.89292,95.54728)"
         style="stroke:none"
         inkscape:label="remove"
         inkscape:export-filename="emotes/remove.png"
         inkscape:export-xdpi="96"
         inkscape:export-ydpi="96"><path
           style="fill:#ff3f62;fill-opacity:1;stroke:none;stroke-width:1.06667"
           d="M 595.34399,331.12414 V 257.4905 l 128.26666,0.28349 128.26666,0.28348 4.52255,2.93991 c 5.81608,3.78078 9.56196,9.50534 10.92587,16.69727 1.43855,7.58543 1.43855,99.27355 0,106.85898 -1.36391,7.19192 -5.10979,12.91649 -10.92587,16.69727 l -4.52255,2.9399 -128.26666,0.28349 -128.26666,0.28349 z"
           id="path329" /><path
           style="fill:#ff0c38;fill-opacity:1;stroke:none;stroke-width:1.06667"
           d="m 342.89217,404.67679 c -8.22775,-1.62687 -13.91123,-5.96787 -18.09306,-13.81932 -1.86748,-3.50624 -1.98844,-7.13978 -1.98844,-59.73333 0,-55.34109 0.0271,-56.0502 2.30231,-60.26667 2.9416,-5.4514 7.23504,-9.5111 12.63103,-11.94341 4.02206,-1.81299 11.5283,-1.93999 130.93332,-2.21513 l 126.66666,-0.2919 v 74.69189 74.69188 L 471.344,405.67392 c -68.2,-0.0643 -126.00332,-0.51298 -128.45183,-0.99713 z"
           id="path327" /></g></g><path
       id="path905"
       style="display:none;fill:none;fill-rule:evenodd;stroke:#ffc800;stroke-width:4.8;paint-order:markers fill stroke"
       d="m 191.12188,174.21053 c 0,27.19573 -14.50875,52.32562 -38.06094,65.92349 -23.55219,13.59786 -52.56969,13.59786 -76.121881,-1e-5 -23.55219,-13.59786 -38.060938,-38.72775 -38.060938,-65.92348"
       sodipodi:nodetypes="cssc"
       inkscape:label="spinner" /></g></svg>
