<?xml version="1.0" encoding="UTF-8" standalone="no"?>
<svg
   sodipodi:docname="icon.svg"
   inkscape:version="1.2.1 (9c6d41e410, 2022-07-14, custom)"
   id="svg8"
   version="1.1"
   viewBox="0 0 270.93332 270.93334"
   height="1024"
   width="1024"
   xml:space="preserve"
   inkscape:export-filename="icon.png"
   inkscape:export-xdpi="96"
   inkscape:export-ydpi="96"
   xmlns:inkscape="http://www.inkscape.org/namespaces/inkscape"
   xmlns:sodipodi="http://sodipodi.sourceforge.net/DTD/sodipodi-0.dtd"
   xmlns:xlink="http://www.w3.org/1999/xlink"
   xmlns="http://www.w3.org/2000/svg"
   xmlns:svg="http://www.w3.org/2000/svg"
   xmlns:rdf="http://www.w3.org/1999/02/22-rdf-syntax-ns#"
   xmlns:cc="http://creativecommons.org/ns#"
   xmlns:dc="http://purl.org/dc/elements/1.1/"><defs
     id="defs2"><linearGradient
       id="linearGradient3074"><stop
         style="stop-color:#d66c00;stop-opacity:1;"
         offset="0.22985028"
         id="stop3072" /><stop
         style="stop-color:#d9e200;stop-opacity:1;"
         offset="0.72151548"
         id="stop3107" /></linearGradient><clipPath
       clipPathUnits="userSpaceOnUse"
       id="clipPath1564"><use
         x="0"
         y="0"
         xlink:href="#g1560"
         id="use1566" /></clipPath></defs><sodipodi:namedview
     inkscape:window-maximized="1"
     inkscape:window-y="34"
     inkscape:window-x="0"
     inkscape:window-height="706"
     inkscape:window-width="1366"
     inkscape:showpageshadow="false"
     inkscape:pagecheckerboard="true"
     units="px"
     showgrid="false"
     inkscape:document-rotation="0"
     inkscape:current-layer="layer1"
     inkscape:document-units="px"
     inkscape:cy="261.19138"
     inkscape:cx="38.900844"
     inkscape:zoom="0.17994468"
     inkscape:pageshadow="2"
     inkscape:pageopacity="1"
     borderopacity="1.0"
     bordercolor="#666666"
     pagecolor="#2b2d42"
     id="base"
     inkscape:deskcolor="#d1d1d1" /><metadata
     id="metadata5"><rdf:RDF><cc:Work
         rdf:about=""><dc:format>image/svg+xml</dc:format><dc:type
           rdf:resource="http://purl.org/dc/dcmitype/StillImage" /></cc:Work></rdf:RDF></metadata><g
     id="layer1"
     inkscape:groupmode="layer"
     inkscape:label="Layer 1"><g
       id="g1800"
       inkscape:label="colors"><rect
         style="opacity:1;fill:#2b2d42;fill-opacity:1;stroke:none;stroke-width:0.0613833;stroke-linecap:round;stroke-linejoin:round"
         id="rect1653"
         width="57.955578"
         height="39.289127"
         x="-118.41911"
         y="-57.586948" /><rect
         style="opacity:1;fill:#6b3ebd;fill-opacity:1;stroke:none;stroke-width:0.0613833;stroke-linecap:round;stroke-linejoin:round"
         id="rect1793"
         width="57.955578"
         height="39.289127"
         x="-118.41911"
         y="4.6260295" /><rect
         style="opacity:1;fill:#feb500;fill-opacity:1;stroke:none;stroke-width:0.0613833;stroke-linecap:round;stroke-linejoin:round"
         id="rect1795"
         width="57.955578"
         height="39.289127"
         x="-118.41911"
         y="66.4207" /><rect
         style="opacity:1;fill:#fed33c;fill-opacity:1;stroke:none;stroke-width:0.0613833;stroke-linecap:round;stroke-linejoin:round"
         id="rect2229"
         width="57.955578"
         height="39.289127"
         x="-118.41911"
         y="122.19254" /></g><g
       id="g353"
       transform="translate(35.582529,-16.775426)"
       style="display:inline"
       inkscape:label="crown"><g
         id="g1562"
         clip-path="url(#clipPath1564)"><g
           inkscape:label="Clip"
           id="g1560"
           style="display:inline"><path
             id="path563"
             style="display:inline;fill:#fed33c;fill-opacity:1;stroke:none;stroke-width:8.46667"
             d="m 64.367441,106.49708 -17.457332,21.15633 -11.377083,-8.94416 -1.422135,1.19011 -2.389519,41.78298 -2.52646,6.91534 4.192509,5.34024 1.765783,8.56331 14.676107,1.7663 -14.663188,-0.25012 -1.727026,5.62343 1.961121,5.17798 2.821533,1.51877 5.040002,0.91209 12.943913,0.36639 38.569738,0.52348 34.346226,-0.65991 24.23418,1.1405 11.8215,-1.4025 0.19327,-7.81503 -0.52762,-6.1252 -2.90628,0.0444 2.83755,-0.84026 2.31769,-3.49436 -0.11472,-5.81308 4.12119,-8.0729 -5.79654,-7.04814 -0.12144,-40.06939 -10.79728,8.71936 -3.20393,0.32453 -15.6776,-20.08198 -17.5581,18.4149 -5.42396,1.05678 -13.134598,-8.45943 -17.022217,10.02833 z" /></g><path
           style="fill:#feb500;fill-opacity:1;stroke:none;stroke-width:8.46667"
           d="m 133.10611,143.00631 -14.08207,-9.33196 -1.8856,-7.43883 16.25781,-17.38744 3.12254,-0.61815 12.61097,14.3357 2.44798,5.6593 -11.90959,13.05461 z"
           id="path1631" /><path
           style="fill:#feb500;fill-opacity:1;stroke:none;stroke-width:8.46667"
           d="m 62.877683,143.64769 -14.628603,-14.44624 11.790606,-17.43171 4.400171,-4.57221 15.467118,16.37324 3.706292,6.20462 -14.182823,13.1364 z"
           id="path1772" /><path
           style="fill:#feb500;fill-opacity:1;stroke:none;stroke-width:8.46667"
           d="m 135.65904,172.13568 -4.31965,-2.8725 0.8347,-6.5226 4.40078,-1.69503 4.07591,4.97234 z"
           id="path1801" /><path
           style="fill:#feb500;fill-opacity:1;stroke:none;stroke-width:8.46667"
           d="m 166.09342,173.10356 -4.81934,-4.85261 2.63475,-5.72626 2.99455,-1.75004 4.74893,3.95413 z"
           id="path1803" /><path
           style="fill:#feb500;fill-opacity:1;stroke:none;stroke-width:8.46667"
           d="m 106.55117,171.21872 -7.913976,2.57591 -6.241954,-2.66072 -1.765684,-7.41533 2.486525,-7.02778 5.307314,-2.08066 4.883165,-0.1544 3.06283,2.22399 2.89514,4.5806 -0.26274,5.47662 z"
           id="path1805" /><path
           style="fill:#feb500;fill-opacity:1;stroke:none;stroke-width:8.46667"
           d="m 66.736663,171.84508 -5.203595,-0.67529 -2.178881,-3.64767 0.901909,-4.15105 4.95477,-1.97029 2.81245,1.72045 1.933564,5.29366 z"
           id="path1807" /><path
           style="fill:#feb500;fill-opacity:1;stroke:none;stroke-width:8.46667"
           d="m 36.685476,170.97723 -4.785008,1.09032 -2.704793,-5.21733 2.232062,-4.88869 4.541612,-0.41681 2.670861,3.56798 z"
           id="path1809" /><path
           style="fill:#feb500;fill-opacity:1;stroke:none;stroke-width:8.46667"
           d="m 34.814179,184.90092 40.293686,-0.56491 86.542245,-2.49284 5.56202,7.41671 -1.75301,7.69792 -18.47807,1.66399 -20.90982,-0.80153 -87.589654,-1.24539 -4.44859,-1.51191 z"
           id="path1811" /></g><path
         d="m 32.449663,187.19537 c 0,-10.03556 -0.5785,-13.13764 -3.0315,-16.2561 -3.0252,-3.84603 -2.4252,-7.99777 1.5072,-10.42809 0.9022,-0.55759 1.5243,-10.41822 1.5243,-24.15977 0,-23.21768 0,-23.21768 6.5716,-16.76817 8.2288,8.07593 7.0228,8.39399 16.4646,-4.34234 4.4002,-5.93552 8.465,-10.59079 9.033,-10.34506 0.5679,0.24574 5.1028,4.92965 10.0773,10.4087 11.1445,12.27457 9.6749,11.8135 17.1795,5.38983 3.4633,-2.9644 7.1121,-5.38983 8.1085,-5.38983 0.996397,0 4.645197,2.42543 8.108397,5.38983 7.5046,6.42367 6.035,6.88474 17.1795,-5.38983 11.5216,-12.68993 10.039,-12.68234 19.192,-0.0982 9.2902,12.77295 8.1409,12.4659 16.383,4.37691 6.5715,-6.44948 6.5715,-6.44948 6.5715,16.7682 0,13.74155 0.6222,23.60218 1.5244,24.15977 3.9323,2.43032 4.5324,6.58206 1.5071,10.42809 -2.453,3.11846 -3.0315,6.22054 -3.0315,16.2561 0,12.40223 0,12.40223 -12.3512,12.40223 -7.8439,0 -12.0056,-0.5593 -11.4041,-1.5326 0.521,-0.84294 5.3894,-1.53261 10.8187,-1.53261 9.8714,0 9.8714,0 9.8714,-5.3641 0,-5.3641 0,-5.3641 -49.8095,-5.3641 -32.184597,0 -49.809597,-0.54231 -49.809597,-1.5326 0,-0.99029 17.625,-1.53261 49.809597,-1.53261 52.3918,0 58.7165,-1.42817 47.5106,-10.7282 -1.2644,-1.04936 -2.2989,-3.56929 -2.2989,-5.59987 0,-2.03057 1.0345,-4.08892 2.2989,-4.57411 2.4458,-0.93852 3.5981,-40.40186 1.1798,-40.40186 -0.6155,0 -7.1066,5.95975 -14.4247,13.24388 -15.2565,15.18586 -10.837,15.85096 -35.6404,-5.36354 -13.184997,-11.27717 -13.184997,-11.27717 -26.369997,0 -24.8035,21.2145 -20.3839,20.5494 -35.6405,5.36354 -7.318,-7.28413 -13.8091,-13.24388 -14.4246,-13.24388 -2.4184,0 -1.266,39.46334 1.1797,40.40186 1.2644,0.48519 2.2989,2.54354 2.2989,4.57411 0,2.03058 -1.0345,4.55051 -2.2989,5.59987 -7.0506,5.85145 -2.8705,10.7282 9.1956,10.7282 6.6413,0 11.4945,0.6471 11.4945,1.53261 0,0.8855 -4.8532,1.5326 -11.4945,1.5326 -11.4945,0 -11.4945,0 -11.4945,5.3641 0,5.3641 0,5.3641 50.5759,5.3641 32.695397,0 50.575797,0.54184 50.575797,1.53261 0,0.99168 -18.3912,1.5326 -52.108397,1.5326 -52.1085,0 -52.1085,0 -52.1085,-12.40223 z m 4.0831,-19.11912 c 1.2774,-3.32875 -1.9654,-6.45916 -4.2866,-4.13802 -1.9618,1.96179 -0.7464,6.53995 1.7361,6.53995 0.8959,0 2.0436,-1.08087 2.5505,-2.40193 z m 131.803697,0 c 1.2774,-3.32875 -1.9654,-6.45916 -4.2866,-4.13802 -1.9618,1.96179 -0.7464,6.53995 1.7361,6.53995 0.8959,0 2.0436,-1.08087 2.5505,-2.40193 z M 73.091663,136.58223 c 9.3601,-7.73471 9.3606,-7.40255 -0.028,-18.30238 -9.4246,-10.94153 -7.9755,-11.00598 -16.5987,0.73822 -7.2279,9.84396 -7.2279,9.84396 0.088,16.82309 8.8478,8.44108 7.3047,8.37194 16.5391,0.74107 z m 70.363197,-1.05675 c 7.1233,-6.59958 7.1233,-6.59958 -0.1281,-16.47547 -8.6445,-11.77321 -7.2115,-11.6962 -16.5181,-0.88769 -9.7018,11.2675 -9.6852,10.59303 -0.4484,18.23399 9.133,7.55505 7.9343,7.61611 17.0946,-0.87083 z m -51.233697,36.4853 c -8.7996,-8.79957 1.6101,-24.03125 12.501197,-18.2921 10.3254,5.44107 6.7198,21.3573 -4.838197,21.3573 -2.5544,0 -5.9601,-1.36231 -7.663,-3.0652 z m 14.775197,-4.43365 c 3.4164,-6.89145 -2.7437,-14.01804 -10.098997,-11.68355 -4.951,1.57139 -6.5133,9.69731 -2.7454,14.27972 2.6628,3.2384 10.763697,1.601 12.844397,-2.59617 z m -47.566397,2.66409 c -2.4981,-3.56661 -1.0925,-8.40285 2.8859,-9.92954 3.3998,-1.30459 8.4488,2.33029 8.4488,6.08239 0,7.15516 -7.2856,9.628 -11.3347,3.84715 z m 7.7549,-2.16497 c 0.5069,-1.32105 0.1696,-3.15394 -0.7495,-4.07307 -2.2128,-2.21283 -6.5462,1.24265 -5.3775,4.28814 1.1211,2.92163 4.9752,2.78635 6.127,-0.21507 z m 63.657797,3.62801 c -3.2757,-3.27572 -2.1611,-8.80811 2.1724,-10.78259 3.5281,-1.60747 4.3501,-1.40976 6.8199,1.64036 5.3723,6.63455 -2.9941,15.14046 -8.9923,9.14223 z m 7.8677,-3.41294 c 1.1687,-3.04549 -3.1646,-6.50097 -5.3775,-4.28814 -2.1163,2.11629 -0.5308,6.475 2.3553,6.475 1.2007,0 2.5607,-0.98409 3.0222,-2.18686 z"
         style="display:inline;fill:#000000;fill-opacity:1;stroke:none;stroke-width:1.5326"
         id="path670" /></g><path
       style="color:#000000;display:inline;fill:#feb500;fill-opacity:1;stroke:#feb500;stroke-width:2.11666664;stroke-linejoin:bevel;stroke-dasharray:none;stroke-opacity:1;paint-order:markers fill stroke"
       d="M 135.46667,0 C 60.678147,0 0,60.678147 0,135.46667 c 0,74.78851 60.678147,135.46666 135.46667,135.46666 74.78851,0 135.46666,-60.67815 135.46666,-135.46666 C 270.93333,60.678147 210.25518,0 135.46667,0 Z m 0,4.6794714 c 72.25913,0 130.78719,58.5280616 130.78719,130.7871986 0,72.25913 -58.52806,130.78719 -130.78719,130.78719 C 63.207533,266.25386 4.6794714,207.7258 4.6794714,135.46667 4.6794714,63.207533 63.207533,4.6794714 135.46667,4.6794714 Z"
       id="path314"
       inkscape:label="round-border" /></g></svg>
