<?xml version="1.0" encoding="UTF-8" standalone="no"?>
<svg
   sodipodi:docname="icon.svg"
   inkscape:version="1.2.1 (9c6d41e410, 2022-07-14, custom)"
   id="svg8"
   version="1.1"
   viewBox="0 0 270.93332 270.93334"
   height="1024"
   width="1024"
   xml:space="preserve"
   inkscape:export-filename="icon.png"
   inkscape:export-xdpi="96"
   inkscape:export-ydpi="96"
   xmlns:inkscape="http://www.inkscape.org/namespaces/inkscape"
   xmlns:sodipodi="http://sodipodi.sourceforge.net/DTD/sodipodi-0.dtd"
   xmlns="http://www.w3.org/2000/svg"
   xmlns:svg="http://www.w3.org/2000/svg"
   xmlns:rdf="http://www.w3.org/1999/02/22-rdf-syntax-ns#"
   xmlns:cc="http://creativecommons.org/ns#"
   xmlns:dc="http://purl.org/dc/elements/1.1/"><defs
     id="defs2"><style
       id="style734">
      .cls-1 {
        fill: #02a9ff;
      }

      .cls-1, .cls-2 {
        fill-rule: evenodd;
      }

      .cls-2 {
        fill: #fefefe;
      }
    </style></defs><sodipodi:namedview
     inkscape:window-maximized="1"
     inkscape:window-y="34"
     inkscape:window-x="0"
     inkscape:window-height="706"
     inkscape:window-width="1366"
     inkscape:showpageshadow="false"
     inkscape:pagecheckerboard="true"
     units="px"
     showgrid="false"
     inkscape:document-rotation="0"
     inkscape:current-layer="layer1"
     inkscape:document-units="px"
     inkscape:cy="560"
     inkscape:cx="757.14286"
     inkscape:zoom="0.35"
     inkscape:pageshadow="2"
     inkscape:pageopacity="1"
     borderopacity="1.0"
     bordercolor="#666666"
     pagecolor="#2b2d42"
     id="base"
     inkscape:deskcolor="#d1d1d1" /><metadata
     id="metadata5"><rdf:RDF><cc:Work
         rdf:about=""><dc:format>image/svg+xml</dc:format><dc:type
           rdf:resource="http://purl.org/dc/dcmitype/StillImage" /></cc:Work></rdf:RDF></metadata><g
     id="layer1"
     inkscape:groupmode="layer"
     inkscape:label="Layer 1"><g
       id="g742"
       transform="matrix(1.2361859,0,0,1.2361859,28.773314,29.06629)"><path
         d="M 111.322,111.157 V 41.029 c 0,-4.019 -2.217,-6.237 -6.236,-6.237 H 91.365 c -4.019,0 -6.237,2.218 -6.237,6.237 0,0 0,15.308 0,33.304 0,0.938 9.037,5.293 9.273,6.214 6.885,26.902 1.496,48.433 -5.031,49.438 10.672,0.528 11.846,5.659 3.897,2.153 1.216,-14.354 5.961,-14.326 19.602,-0.528 0.117,0.119 2.797,5.741 2.964,5.741 15.337,0 32.217,0 32.217,0 4.019,0 6.236,-2.217 6.236,-6.236 v -13.721 c 0,-4.019 -2.217,-6.237 -6.236,-6.237 z"
         class="cls-1"
         id="path738" /><path
         d="M 54.365,34.792 18.331,137.351 h 27.996 l 6.098,-17.74 h 30.49 l 5.96,17.74 h 27.857 L 80.836,34.792 Z m 4.435,62.09 8.731,-28.412 9.563,28.412 z"
         class="cls-2"
         id="path740" /></g></g></svg>
